<svg xmlns="http://www.w3.org/2000/svg" xmlns:xlink="http://www.w3.org/1999/xlink" viewBox="0 0 800 600">
	<g id="ground">
		<rect id="background" fill="#eee" width="800" height="600"/>
		<g id="parking">
			<path fill="#fff" d="M287.5 340c0 5.5-3.182 13.182-7.071 17.071l-39.857 39.857C236.682 400.818 229 404 223.5 404h-142c-5.5 0-10-4.5-10-10v-88c0-5.5 4.5-10 10-10h124c5.5 0 10-4.05 10-9s4.5-9 10-9h34c5.5 0 13.182 3.182 17.071 7.071l3.857 3.857c3.889 3.889 7.071 11.571 7.071 17.071V340z"/>
			<path fill="none" stroke="#ddd" stroke-width="0.5" d="M287.5 340c0 5.5-3.182 13.182-7.071 17.071l-39.857 39.857C236.682 400.818 229 404 223.5 404h-142c-5.5 0-10-4.5-10-10v-88c0-5.5 4.5-10 10-10h124c5.5 0 10-4.05 10-9s4.5-9 10-9h34c5.5 0 13.182 3.182 17.071 7.071l3.857 3.857c3.889 3.889 7.071 11.571 7.071 17.071V340z"/>
		</g>
		<polygon fill="#E4E4E4" points="759.13,106.909 712,106.909 712,139.234 754.63,139.197 759.13,145.106 759.13,219.769 638.08,219.769 633.58,213.86 677,145.147 677.999,106.909 637.08,106.909 632.58,101 754.63,0 759.13,0"/>
		<polygon fill="#F4F4F4" points="754.63,101 707.5,101 707.5,139.238 754.63,139.197 754.63,213.86 633.58,213.86 633.524,139.238 672.5,139.238 673.499,101 632.58,101 593.5,0 754.63,0  "/>
		<polygon fill="#E4E4E4" points="227.531,565.469 35.091,565.242 30.091,557.242 229.909,487.278 234.909,495.278"/>
		<polygon fill="#F4F4F4" points="222.531,557.469 30.091,557.242 30.466,438.53 190.749,438.92 229.909,487.278"/>
		<polygon fill="#fff" stroke="#DDDCDC" stroke-width="0.5" points="800,345.755 566.5,600 632.96,600 800,413"/>
		<path fill="#ccc" d="M618.646 564.696l0.579-0.621c0.132-0.142 0.282-0.171 0.45-0.087l10.94 5.321c0.126 0.062 0.253 0.134 0.386 0.216 0.133 0.083 0.271 0.169 0.416 0.258 -0.1-0.138-0.193-0.271-0.283-0.4s-0.166-0.255-0.232-0.381l-5.777-10.856c-0.035-0.069-0.051-0.147-0.044-0.232s0.042-0.162 0.105-0.229l0.19-0.205c0.064-0.068 0.135-0.107 0.212-0.117s0.157 0 0.239 0.031l11.232 5.006c0.131 0.057 0.261 0.122 0.393 0.194 0.133 0.073 0.271 0.155 0.416 0.245 -0.095-0.134-0.188-0.262-0.279-0.385 -0.091-0.121-0.172-0.242-0.242-0.362l-6.07-10.542c-0.041-0.064-0.057-0.141-0.047-0.229 0.009-0.088 0.044-0.166 0.107-0.234l0.531-0.57 7.314 12.905 -0.627 0.673 -11.832-5.318c-0.153-0.07-0.309-0.152-0.469-0.246 0.105 0.152 0.197 0.303 0.278 0.451l6.123 11.439 -0.62 0.666L618.646 564.696z"/>
		<path fill="#ccc" d="M638.474 549.357c0.381-0.409 0.806-0.723 1.271-0.939 0.467-0.217 0.956-0.327 1.465-0.33 0.508-0.004 1.027 0.106 1.558 0.33 0.528 0.225 1.05 0.576 1.562 1.053 0.107 0.101 0.165 0.186 0.174 0.253 0.01 0.068-0.017 0.136-0.08 0.204l-4.896 5.252 0.139 0.129c0.546 0.51 1.086 0.895 1.617 1.154 0.533 0.259 1.049 0.402 1.547 0.43 0.5 0.027 0.974-0.058 1.424-0.258 0.451-0.199 0.867-0.504 1.249-0.914 0.341-0.365 0.597-0.721 0.767-1.063 0.169-0.344 0.289-0.654 0.359-0.93 0.071-0.276 0.116-0.506 0.135-0.688 0.021-0.182 0.053-0.297 0.099-0.347 0.059-0.063 0.129-0.09 0.209-0.077l0.411 0.027c0.038 0.254 0.029 0.535-0.023 0.847 -0.053 0.31-0.145 0.626-0.275 0.946 -0.129 0.321-0.294 0.642-0.492 0.963 -0.199 0.32-0.426 0.617-0.68 0.89 -0.465 0.497-0.974 0.87-1.528 1.118 -0.556 0.248-1.136 0.365-1.74 0.349 -0.604-0.016-1.223-0.168-1.853-0.455 -0.63-0.288-1.254-0.72-1.873-1.298 -0.521-0.486-0.934-1.01-1.236-1.57 -0.302-0.561-0.482-1.129-0.541-1.707 -0.058-0.578 0.013-1.154 0.212-1.73C637.651 550.421 637.991 549.875 638.474 549.357zM639.003 549.831c-0.35 0.375-0.605 0.765-0.765 1.171s-0.23 0.82-0.214 1.242c0.018 0.42 0.118 0.842 0.3 1.262 0.183 0.422 0.443 0.83 0.782 1.228l4.467-4.79c-0.39-0.363-0.789-0.635-1.199-0.817 -0.408-0.182-0.811-0.274-1.208-0.28 -0.396-0.006-0.778 0.075-1.147 0.24C639.65 549.252 639.311 549.5 639.003 549.831z"/>
		<path fill="#ccc" d="M647.647 541.573c0.037 0.098 0.021 0.183-0.049 0.256 -0.049 0.054-0.145 0.095-0.285 0.124 -0.141 0.028-0.313 0.076-0.519 0.145 -0.204 0.068-0.433 0.176-0.683 0.322 -0.249 0.145-0.51 0.363-0.783 0.656 -0.246 0.264-0.432 0.539-0.559 0.826s-0.199 0.566-0.216 0.838 0.02 0.528 0.106 0.77c0.09 0.242 0.226 0.449 0.41 0.621 0.229 0.213 0.473 0.332 0.732 0.355s0.531-0.01 0.816-0.1c0.284-0.091 0.578-0.221 0.881-0.39s0.611-0.345 0.926-0.524c0.315-0.181 0.633-0.348 0.952-0.5 0.32-0.152 0.64-0.258 0.958-0.316 0.32-0.059 0.636-0.051 0.949 0.023s0.617 0.248 0.909 0.52c0.317 0.296 0.56 0.629 0.726 0.997 0.166 0.37 0.248 0.757 0.244 1.159 -0.002 0.403-0.092 0.818-0.271 1.244s-0.456 0.842-0.834 1.246c-0.478 0.512-0.971 0.877-1.479 1.096 -0.508 0.218-1.031 0.35-1.567 0.398l-0.091-0.4c-0.018-0.061-0.021-0.115-0.014-0.163 0.008-0.046 0.037-0.097 0.088-0.151 0.059-0.063 0.17-0.105 0.334-0.125s0.361-0.063 0.59-0.127 0.486-0.172 0.771-0.32c0.284-0.149 0.579-0.387 0.883-0.713 0.287-0.308 0.496-0.619 0.631-0.932 0.132-0.314 0.197-0.617 0.197-0.909s-0.063-0.571-0.184-0.835c-0.123-0.266-0.295-0.5-0.514-0.705 -0.244-0.227-0.502-0.357-0.771-0.391 -0.27-0.032-0.549-0.006-0.838 0.08 -0.29 0.085-0.586 0.213-0.89 0.381s-0.612 0.344-0.929 0.527c-0.318 0.184-0.635 0.353-0.953 0.508 -0.316 0.154-0.635 0.262-0.953 0.32 -0.319 0.058-0.635 0.051-0.946-0.02 -0.311-0.072-0.618-0.25-0.92-0.531 -0.259-0.242-0.456-0.529-0.591-0.864 -0.133-0.335-0.193-0.69-0.182-1.065 0.014-0.375 0.104-0.762 0.275-1.16 0.17-0.396 0.428-0.781 0.773-1.152 0.413-0.443 0.845-0.776 1.293-1 0.449-0.225 0.94-0.357 1.473-0.396L647.647 541.573z"/>
		<path fill="#ccc" d="M658.11 543.359c-0.46 0.492-0.953 0.748-1.48 0.766 -0.527 0.019-1.076-0.238-1.647-0.77l-4.974-4.639 -0.975 1.047c-0.051 0.054-0.105 0.084-0.167 0.09 -0.062 0.008-0.118-0.014-0.173-0.064l-0.27-0.252 1.071-1.325 -2.442-2.602c-0.038-0.046-0.061-0.1-0.065-0.163s0.017-0.121 0.066-0.176l0.304-0.325 2.779 2.593 2.135-2.289 0.52 0.483 -2.135 2.289 4.938 4.604c0.199 0.187 0.395 0.321 0.586 0.404 0.192 0.083 0.377 0.122 0.553 0.118 0.176-0.003 0.345-0.045 0.502-0.127 0.156-0.081 0.302-0.191 0.434-0.334 0.164-0.176 0.279-0.351 0.346-0.524 0.068-0.175 0.113-0.336 0.139-0.485 0.025-0.15 0.041-0.278 0.044-0.385 0.003-0.105 0.021-0.176 0.052-0.21 0.037-0.039 0.098-0.056 0.183-0.05l0.485 0.098c0.031 0.375-0.023 0.766-0.165 1.166S658.396 543.052 658.11 543.359z"/>
		<path fill="#ccc" d="M664.026 535.504l4.576-4.907 0.636 0.594 -5.272 5.653 -10.348-9.65 0.695-0.746L664.026 535.504z"/>
		<path fill="#ccc" d="M674.946 525.068c-0.136 0.146-0.288 0.174-0.457 0.08l-1.023-0.764c0.008 0.382-0.001 0.744-0.029 1.087 -0.027 0.343-0.088 0.671-0.182 0.986 -0.093 0.313-0.227 0.622-0.402 0.923 -0.177 0.301-0.402 0.601-0.68 0.897 -0.232 0.249-0.494 0.457-0.785 0.622 -0.291 0.166-0.597 0.269-0.916 0.309 -0.319 0.039-0.648 0.003-0.988-0.107 -0.338-0.111-0.674-0.322-1.005-0.631 -0.308-0.286-0.51-0.64-0.61-1.061 -0.1-0.422-0.072-0.908 0.08-1.463 0.154-0.556 0.445-1.182 0.875-1.879 0.432-0.695 1.021-1.465 1.77-2.308l-0.76-0.71c-0.674-0.627-1.326-0.965-1.96-1.014s-1.217 0.213-1.749 0.783c-0.326 0.352-0.557 0.695-0.689 1.032 -0.132 0.337-0.219 0.646-0.26 0.925 -0.043 0.281-0.065 0.52-0.067 0.718 -0.003 0.198-0.038 0.333-0.106 0.406 -0.092 0.098-0.203 0.13-0.336 0.097l-0.328-0.073c-0.025-0.734 0.059-1.403 0.256-2.003 0.195-0.602 0.541-1.169 1.037-1.7 0.363-0.39 0.744-0.673 1.141-0.85 0.397-0.177 0.803-0.253 1.213-0.229 0.411 0.023 0.827 0.14 1.246 0.348 0.42 0.211 0.833 0.504 1.237 0.881l4.739 4.42L674.946 525.068zM671.831 527.633c0.264-0.283 0.477-0.57 0.635-0.865 0.16-0.293 0.279-0.592 0.358-0.896 0.079-0.306 0.125-0.615 0.138-0.933 0.013-0.315 0.01-0.641-0.006-0.976l-1.895-1.767c-0.626 0.71-1.129 1.355-1.51 1.936 -0.381 0.578-0.649 1.099-0.806 1.559 -0.155 0.461-0.204 0.863-0.146 1.205s0.218 0.634 0.477 0.875c0.244 0.228 0.492 0.384 0.745 0.469 0.253 0.086 0.498 0.116 0.735 0.091 0.237-0.024 0.465-0.1 0.682-0.225C671.457 527.98 671.653 527.822 671.831 527.633z"/>
		<path fill="#ccc" d="M667.327 511.906l6.486 6.05 0.314-0.337c0.064-0.068 0.113-0.143 0.15-0.221 0.039-0.079 0.055-0.189 0.049-0.331l-0.051-5.503c-0.002-0.104 0.005-0.199 0.022-0.287 0.019-0.088 0.067-0.176 0.149-0.264l0.573-0.614 0.056 6.054c0.004 0.095 0.006 0.184 0.007 0.266 0 0.082-0.011 0.164-0.03 0.245 0.111-0.042 0.219-0.063 0.322-0.067s0.215-0.006 0.333-0.004l6.814 0.052 -0.565 0.606c-0.064 0.068-0.134 0.116-0.211 0.146 -0.077 0.027-0.17 0.041-0.278 0.041l-6.126 0.001c-0.166 0.001-0.296 0.021-0.392 0.06 -0.095 0.039-0.21 0.132-0.347 0.277l-0.308 0.33 3.671 3.424 -0.648 0.694 -10.641-9.923L667.327 511.906z"/>
		<path fill="#ccc" d="M678.718 506.201c0.381-0.409 0.806-0.723 1.271-0.939 0.467-0.217 0.955-0.326 1.465-0.33 0.508-0.004 1.027 0.107 1.557 0.33 0.529 0.225 1.05 0.576 1.563 1.054 0.106 0.101 0.165 0.185 0.174 0.253 0.01 0.067-0.018 0.135-0.08 0.203l-4.897 5.252 0.14 0.13c0.545 0.509 1.086 0.894 1.617 1.153 0.533 0.259 1.049 0.402 1.547 0.43 0.499 0.027 0.973-0.058 1.424-0.258 0.451-0.199 0.867-0.504 1.249-0.914 0.341-0.365 0.597-0.72 0.766-1.063 0.169-0.344 0.29-0.654 0.36-0.93 0.071-0.276 0.116-0.506 0.135-0.688 0.021-0.182 0.053-0.297 0.099-0.347 0.059-0.063 0.129-0.09 0.209-0.077l0.411 0.027c0.037 0.254 0.029 0.535-0.023 0.847 -0.053 0.311-0.145 0.626-0.275 0.946 -0.129 0.321-0.295 0.643-0.493 0.963s-0.425 0.617-0.679 0.89c-0.465 0.497-0.975 0.87-1.528 1.118 -0.556 0.248-1.136 0.365-1.741 0.349 -0.604-0.016-1.223-0.168-1.852-0.455 -0.63-0.288-1.254-0.72-1.873-1.298 -0.521-0.486-0.934-1.01-1.236-1.57 -0.302-0.56-0.482-1.129-0.541-1.707 -0.058-0.578 0.013-1.154 0.211-1.73C677.896 507.266 678.235 506.719 678.718 506.201zM679.246 506.675c-0.35 0.375-0.604 0.766-0.764 1.171 -0.16 0.407-0.23 0.82-0.214 1.242 0.018 0.421 0.117 0.842 0.3 1.262 0.183 0.422 0.442 0.83 0.782 1.229l4.467-4.791c-0.39-0.363-0.789-0.635-1.199-0.817 -0.408-0.181-0.812-0.274-1.208-0.28 -0.396-0.006-0.778 0.075-1.147 0.24C679.895 506.096 679.555 506.344 679.246 506.675z"/>
		<path fill="#ccc" d="M700.746 497.402l-0.538 0.578c-0.064 0.068-0.135 0.107-0.212 0.117s-0.157 0-0.237-0.03l-4.146-1.582 -4.74 5.083 1.874 4.018c0.035 0.068 0.05 0.146 0.043 0.231 -0.006 0.085-0.041 0.161-0.105 0.229l-0.531 0.57 -6.4-13.885 0.695-0.746L700.746 497.402zM690.529 500.823l4.323-4.637 -7.199-2.763c-0.115-0.044-0.24-0.097-0.378-0.16 -0.137-0.063-0.28-0.133-0.429-0.208 0.086 0.144 0.164 0.28 0.238 0.413 0.073 0.131 0.137 0.255 0.193 0.371L690.529 500.823z"/>
		<path fill="#ccc" d="M703.973 493.943l-0.573 0.613 -10.141-3.713 0.512-0.549c0.063-0.068 0.133-0.105 0.207-0.113 0.075-0.008 0.145 0 0.207 0.021l7.978 2.953c0.157 0.057 0.299 0.121 0.425 0.191 0.125 0.07 0.25 0.143 0.375 0.213 -0.08-0.119-0.16-0.242-0.239-0.367 -0.08-0.123-0.152-0.258-0.22-0.402l-3.49-7.767c-0.031-0.074-0.043-0.147-0.035-0.218 0.006-0.071 0.037-0.137 0.092-0.194l0.49-0.527L703.973 493.943z"/>
		<path fill="#ccc" d="M703.153 479.998c0.381-0.41 0.806-0.723 1.271-0.939 0.467-0.217 0.955-0.327 1.465-0.33 0.508-0.004 1.027 0.106 1.557 0.33 0.529 0.225 1.05 0.576 1.563 1.053 0.106 0.101 0.165 0.186 0.174 0.253 0.01 0.067-0.018 0.136-0.08 0.204l-4.897 5.252 0.14 0.129c0.545 0.51 1.086 0.894 1.617 1.153 0.533 0.259 1.049 0.403 1.547 0.431 0.499 0.027 0.973-0.059 1.424-0.258 0.451-0.2 0.867-0.505 1.249-0.914 0.341-0.365 0.597-0.721 0.766-1.063 0.169-0.344 0.29-0.653 0.36-0.929 0.07-0.277 0.115-0.506 0.135-0.688 0.021-0.182 0.053-0.298 0.098-0.348 0.059-0.063 0.129-0.09 0.21-0.076l0.411 0.026c0.037 0.254 0.029 0.536-0.023 0.847s-0.145 0.627-0.275 0.947c-0.129 0.32-0.295 0.642-0.493 0.962 -0.198 0.321-0.425 0.617-0.679 0.89 -0.465 0.498-0.975 0.871-1.529 1.119s-1.135 0.365-1.74 0.348c-0.604-0.016-1.223-0.168-1.852-0.455 -0.63-0.287-1.254-0.719-1.873-1.297 -0.521-0.486-0.934-1.01-1.236-1.57 -0.302-0.561-0.482-1.129-0.541-1.708 -0.058-0.577 0.013-1.154 0.211-1.729C702.331 481.062 702.671 480.515 703.153 479.998zM703.682 480.471c-0.35 0.375-0.604 0.766-0.764 1.172 -0.16 0.406-0.231 0.82-0.214 1.242 0.018 0.42 0.117 0.842 0.3 1.262 0.182 0.421 0.442 0.83 0.782 1.228l4.467-4.79c-0.391-0.363-0.789-0.636-1.199-0.818 -0.408-0.181-0.812-0.274-1.208-0.279 -0.396-0.006-0.778 0.074-1.147 0.24C704.33 479.893 703.99 480.141 703.682 480.471z"/>
		<path fill="#ccc" d="M714.959 482.162l-7.276-6.787 0.354-0.379c0.119-0.128 0.248-0.144 0.389-0.051l1.158 0.958c-0.111-0.723-0.088-1.424 0.068-2.104 0.155-0.68 0.484-1.29 0.989-1.832 0.373-0.399 0.765-0.692 1.177-0.88 0.41-0.186 0.828-0.268 1.254-0.244 0.424 0.022 0.854 0.14 1.286 0.351 0.432 0.212 0.859 0.515 1.284 0.91l4.65 4.338 -0.647 0.694 -4.651-4.338c-0.682-0.636-1.363-0.979-2.042-1.027 -0.679-0.051-1.317 0.248-1.918 0.891 -0.446 0.479-0.736 1.036-0.872 1.676 -0.136 0.639-0.139 1.318-0.01 2.041l5.455 5.088L714.959 482.162z"/>
		<path fill="#ccc" d="M715.539 466.949l4.651 4.338c0.684 0.637 1.363 0.979 2.043 1.028 0.68 0.048 1.318-0.249 1.916-0.89 0.443-0.474 0.734-1.029 0.877-1.664 0.142-0.638 0.15-1.318 0.027-2.047l-5.471-5.102 0.648-0.695 7.277 6.787 -0.357 0.383c-0.126 0.135-0.255 0.145-0.386 0.032l-1.144-0.944c0.104 0.729 0.078 1.432-0.08 2.109 -0.16 0.679-0.49 1.289-0.996 1.83 -0.378 0.406-0.771 0.701-1.181 0.885 -0.409 0.186-0.827 0.266-1.251 0.244 -0.426-0.023-0.855-0.141-1.288-0.352 -0.432-0.212-0.859-0.514-1.284-0.91l-4.65-4.338L715.539 466.949z"/>
		<path fill="#ccc" d="M724.881 456.697c0.382-0.409 0.806-0.723 1.272-0.939s0.955-0.326 1.465-0.33c0.508-0.004 1.027 0.107 1.557 0.33 0.528 0.225 1.049 0.576 1.562 1.053 0.106 0.101 0.165 0.186 0.175 0.253 0.01 0.068-0.018 0.136-0.08 0.204l-4.898 5.252 0.14 0.129c0.546 0.51 1.086 0.895 1.618 1.154 0.533 0.259 1.049 0.402 1.547 0.43s0.973-0.058 1.424-0.258c0.45-0.199 0.867-0.504 1.248-0.914 0.342-0.365 0.598-0.72 0.766-1.063 0.17-0.344 0.291-0.654 0.361-0.93 0.07-0.276 0.115-0.506 0.135-0.688s0.052-0.297 0.098-0.347c0.059-0.063 0.129-0.09 0.209-0.077l0.412 0.027c0.037 0.254 0.029 0.535-0.023 0.847 -0.053 0.311-0.145 0.626-0.275 0.946 -0.13 0.321-0.295 0.643-0.494 0.963 -0.197 0.32-0.424 0.617-0.679 0.89 -0.464 0.497-0.974 0.87-1.528 1.118 -0.556 0.248-1.135 0.365-1.74 0.349 -0.604-0.016-1.223-0.168-1.852-0.455 -0.631-0.288-1.254-0.72-1.873-1.298 -0.522-0.486-0.935-1.01-1.237-1.57 -0.302-0.56-0.482-1.129-0.54-1.707 -0.059-0.578 0.012-1.154 0.211-1.73C724.059 457.761 724.398 457.215 724.881 456.697zM725.409 457.171c-0.35 0.375-0.604 0.766-0.764 1.171 -0.16 0.407-0.23 0.82-0.213 1.242 0.018 0.421 0.117 0.842 0.299 1.262 0.183 0.422 0.443 0.83 0.783 1.228l4.467-4.79c-0.391-0.363-0.789-0.635-1.199-0.817 -0.409-0.181-0.813-0.274-1.209-0.28 -0.395-0.006-0.778 0.075-1.146 0.24C726.058 456.592 725.718 456.84 725.409 457.171z"/>
		<polygon id="road_1_" fill="#fff" stroke="#ddd" stroke-width="0.5" points="402.5,600 214.833,404 198.5,404 385.5,600"/>
	</g>
	<g id="fund">
		<path display="none" fill="#E4E4E4" d="M425.5 498l54-54h36l36 36h63l27-27v-63l-90-90c0 0 0-54 0-99s-36-72-72-72h-9l-54-54h-63l-36 36h-126V93h-117v180h117v-18h99l36 36v72l-63 63 72 72H425.5z"/>
		<path fill="#E4E4E4" d="M425.5 499l54-54h36l36 36h63l27-27v-63l-90-90c0 0 0-54 0-99s-36-72-72-72h-9l-54-54h-63l-36 36h-126V94h-117v180h117v-18h99l36 36v72l-63 63 72 72H425.5z"/>
		<path fill="#fff" d="M422.5 494l54-54h36l36 36h63l27-27v-63l-90-90c0 0 0-54 0-99s-36-72-72-72h-9l-54-54h-63l-36 36h-126V89h-117v180h117v-18h99l36 36v72l-63 63 72 72H422.5z"/>
	</g>
	<g id="other">
		<path fill="#888" d="M158.641 351.244v5.09h-2.69v-14.46h4.71c0.967 0 1.804 0.113 2.51 0.34s1.29 0.544 1.75 0.95 0.8 0.894 1.02 1.46c0.22 0.566 0.33 1.187 0.33 1.86 0 0.699-0.117 1.342-0.35 1.925s-0.583 1.085-1.05 1.505c-0.467 0.42-1.05 0.747-1.75 0.979 -0.7 0.233-1.52 0.351-2.46 0.351H158.641zM158.641 349.144h2.02c0.494 0 0.923-0.062 1.29-0.185s0.67-0.3 0.91-0.53c0.24-0.229 0.42-0.51 0.54-0.84s0.18-0.698 0.18-1.104c0-0.387-0.06-0.737-0.18-1.051 -0.12-0.313-0.3-0.58-0.54-0.8 -0.24-0.22-0.543-0.388-0.91-0.505 -0.367-0.116-0.796-0.175-1.29-0.175h-2.02V349.144z"/>
		<path fill="#888" d="M169.59 354.484h2.93v-8.431c0-0.326 0.01-0.67 0.03-1.029l-2.08 1.739c-0.086 0.074-0.175 0.124-0.265 0.15 -0.09 0.026-0.179 0.04-0.265 0.04 -0.133 0-0.255-0.028-0.365-0.085 -0.11-0.057-0.191-0.122-0.245-0.195l-0.78-1.07 4.41-3.75h2.03v12.631h2.6v1.85h-8V354.484z"/>
	</g>
	<g id="shops">
		<circle fill="#bbb" stroke="#ABABAB" stroke-width="0.5" cx="377.5" cy="179" r="9"/>
		<g id="health">
			<a xlink:href="#walgreens" xlink:title="Walgreens"><polygon points="242.5,188 215.5,188 197.5,206 197.5,251 242.5,251"/></a>
			<a xlink:href="#cvs" xlink:title="CVS Pharmacy"><polygon points="512.5,251 503.5,242 467.5,278 467.5,287 512.5,287"/></a>
			<a xlink:href="#sephora" xlink:title="Sephora"><polygon points="458.5,458 422.5,494 386.5,494 386.498,457.998 386.5,422 404.5,404"/></a>
		</g>
		<g id="misc">
			<rect x="242.5" y="107" width="36" height="63"/>
			<polygon points="350.5,422 305.5,377 323.5,359 413.5,359"/>
			<polygon points="476.5,440 494.5,422 458.5,386 485.501,359.002 539.5,413 512.5,440"/>
			<rect x="528.636" y="359.772" transform="matrix(0.7071 -0.7071 0.7071 0.7071 -106.6994 487.4048)" width="12.728" height="25.456"/>
			<polygon points="395.5,89 395.5,116 440.5,116 449.5,107 431.5,89"/>
			<rect x="542.136" y="379.636" transform="matrix(0.7071 0.7071 -0.7071 0.7071 433.5952 -274.7913)" width="12.728" height="12.728"/>
			<rect x="531.272" y="299.408" transform="matrix(0.7071 0.7071 -0.7071 0.7071 384.5474 -291.3796)" width="25.456" height="38.184"/>
			<rect x="549.272" y="317.408" transform="matrix(0.7071 0.7071 -0.7071 0.7071 402.5474 -298.8354)" width="25.456" height="38.184"/>
			<rect x="260.5" y="188" width="27" height="36"/>
		</g>
		<g id="other">
			<polygon fill="#BCBCBC" stroke="#fff" stroke-width="0.5" points="638.5,449 629.5,449 620.5,440     638.5,422   "/>
			<polygon fill="#bbb" stroke="#fff" stroke-width="0.5" points="512.5,287 512.5,251 530.5,269     530.5,287   "/>
			<rect x="530.5" y="269" fill="#bbb" stroke="#fff" stroke-width="0.5" width="18" height="18"/>
		</g>
		<g id="clothing">
			<a xlink:href="#sportchek" xlink:title="Sport Chek"><polygon points="242.5,107 188.5,107 188.5,143 215.5,170 242.5,170"/></a>
			<polygon points="467.5,287 548.5,287 548.5,296 521.5,323 503.5,323 467.5,287"/>
			<a xlink:href="#oldnavy" xlink:title="Old Navy"><polygon points="350.5,71 314.5,107 314.5,170 332.5,170 368.5,134 368.5,71"/></a>
			<a xlink:href="#zara" xlink:title="Zara"><polygon points="440.5,170 395.5,215 440.5,260 458.501,260 494.5,224"/></a>
			<a xlink:href="#belk" xlink:title="Belk"><polygon points="413.5,359 323.5,359 323.5,287 422.5,287 422.5,296 413.5,305"/></a>
			<polygon points="260.5,224 260.5,188 242.5,188 242.5,251 287.5,251 287.5,224"/>
			<polygon points="566.5,422 530.5,458 512.5,440 539.5,413 557.5,413"/>
			<polygon points="422.5,161 395.5,134 395.5,116 440.5,116 440.5,143"/>
			<polygon points="593.5,413 575.5,395 575.5,377 602.5,350 620.5,368 602.5,386 611.5,395"/>
			<rect x="567.272" y="335.408" transform="matrix(0.7071 0.7071 -0.7071 0.7071 420.5474 -306.2913)" width="25.456" height="38.184"/>
			<a xlink:href="#hm" xlink:title="H&amp;M"><rect x="411.316" y="387.544" transform="matrix(0.7071 0.7071 -0.7071 0.7071 423.6906 -196.8796)" width="76.368" height="50.912"/></a>
			<polygon points="485.501,359.002 458.5,386 440.5,368 476.5,332 485.5,341"/>
			<rect x="278.5" y="107" width="36" height="63"/>
			<rect x="544.772" y="423.544" transform="matrix(0.7071 0.7071 -0.7071 0.7071 480.7789 -262.703)" width="25.456" height="50.912"/>
		</g>
		<g id="food">
			<polygon points="449.5,179 440.5,170 449.5,161 467.5,161"/>
			<rect x="456.636" y="161.772" transform="matrix(0.7071 0.7071 -0.7071 0.7071 258.9997 -276.2806)" width="12.728" height="25.456"/>
			<a xlink:href="#pizzahut" xlink:title="Pizza Hut"><rect x="465.636" y="170.772" transform="matrix(0.7071 0.7071 -0.7071 0.7071 267.9997 -280.0085)" width="12.728" height="25.456"/></a>
			<a xlink:href="#kfc" xlink:title="Kentucky Friend Chicken"><rect x="474.636" y="179.772" transform="matrix(0.7071 0.7071 -0.7071 0.7071 276.9997 -283.7364)" width="12.728" height="25.456"/></a>
			<a xlink:href="#mcdonalds" xlink:title="McDonald's"><polygon points="503.5,215 494.5,224 476.5,206 494.5,188 503.5,197"/></a>
			<rect x="530.5" y="197" width="18" height="18"/>
			<rect x="530.5" y="215" width="18" height="18"/>
			<a xlink:href="#applebees" xlink:title="Applebee's"><polygon points="539.5,269 512.5,242 530.5,233 548.5,233 548.5,269"/></a>
			<polygon points="467.5,143 458.5,143 458.5,116 467.5,125"/>
			<a xlink:href="#subway" xlink:title="Subway"><polygon points="458.5,143 440.5,143 440.5,116 449.5,107 458.5,116"/></a>
			<a xlink:href="#starbucks" xlink:title="Starbucks"><polygon points="620.5,440 593.5,413 611.5,395 602.5,386 620.5,368 638.5,386 638.5,422"/></a>
			<rect x="506.136" y="343.636" transform="matrix(0.7071 0.7071 -0.7071 0.7071 397.5952 -259.8796)" width="12.728" height="12.728"/>
			<rect x="515.136" y="352.636" transform="matrix(0.7071 0.7071 -0.7071 0.7071 406.5952 -263.6075)" width="12.728" height="12.728"/>
			<polygon points="395.5,71 395.5,89 431.5,89 413.5,71"/>
			<polygon points="548.5,476 584.5,440 611.5,467 611.5,476"/>
		</g>
		<g id="department">
			<a xlink:href="#sears" xlink:title="Sears"><rect x="71.5" y="89" width="117" height="180"/></a>
			<a xlink:href="#macys" xlink:title="Macy's"><polygon points="323.5,188 287.5,188 287.5,251 323.5,287 422.5,287"/></a>
			<a xlink:href="#jcpenney" xlink:title="JCPenney"><polygon points="386.5,494 332.5,494 260.5,422 305.5,377 368.501,440.001 386.5,440 386.5,458"/></a>
		</g>
	</g>
	<g id="signs">
		<g class="escalator-down">
			<path fill="#454545" d="M451.231 261.439c-0.575 0-0.897 0.297-0.897 0.904v6.255c0 0.567 0.29 0.864 0.864 0.864h6.281c0.573 0 0.864-0.282 0.864-0.864v-6.255c0-0.592-0.291-0.904-0.883-0.904C457.461 261.439 451.23 261.438 451.231 261.439z"/>
			<path fill="#fff" d="M453.852 263.549c0.27 0 0.487-0.218 0.487-0.488 0-0.269-0.218-0.487-0.487-0.487s-0.488 0.218-0.488 0.487C453.363 263.331 453.582 263.549 453.852 263.549z"/>
			<path fill="#fff" d="M453.852 263.061"/>
			<path fill="#fff" d="M454.334 264.427v-0.307c0-0.655-0.965-0.648-0.965 0v1.253h0.001l-0.911 0.912c-0.086 0.086-0.097 0.089-0.267 0.089 0 0-0.557 0-0.557 0 -0.562 0-0.897 0.505-0.897 0.932s0.336 0.968 0.947 0.968c0 0 0.759 0 0.993 0s0.519-0.089 0.753-0.311l2.908-2.899c0.063-0.055 0.098-0.073 0.204-0.073 0 0 0.4 0 0.718 0 0.346 0 0.835-0.392 0.835-0.957 0-0.559-0.493-0.931-0.863-0.933H456.1c-0.234 0-0.536 0.096-0.716 0.276L454.334 264.427 454.334 264.427z"/>
			<path fill="#fff" d="M455.145 268.304h1.02c0.279 0 0.291-0.431 0-0.431h-0.522l0.993-0.993c0.22-0.22-0.092-0.539-0.325-0.305l-0.979 0.98v-0.517c0.002-0.28-0.434-0.291-0.434 0v1.012C454.897 268.202 454.998 268.304 455.145 268.304z"/>
			<path fill="#454545" d="M456.169 263.585h1.02c0.248 0 0.415 0.277 0.415 0.443s-0.118 0.474-0.422 0.474h-0.613c-0.259 0-0.375 0.037-0.523 0.186l-2.931 2.931c-0.119 0.118-0.27 0.166-0.462 0.166h-0.967c-0.248 0-0.467-0.21-0.467-0.486s0.209-0.43 0.424-0.43h0.663c0.192 0 0.321-0.055 0.431-0.166l2.979-2.98C455.839 263.601 455.961 263.585 456.169 263.585z"/>
		</g>
		<g class="escalator-up">
			<path fill="#454545" d="M441.813 261.439c-0.575 0-0.897 0.297-0.897 0.904v6.255c0 0.567 0.29 0.864 0.864 0.864h6.281c0.573 0 0.864-0.282 0.864-0.864v-6.255c0-0.592-0.291-0.904-0.883-0.904C448.043 261.439 441.813 261.438 441.813 261.439z"/>
			<path fill="#fff" d="M444.435 263.549c0.27 0 0.487-0.218 0.487-0.488 0-0.269-0.218-0.487-0.487-0.487s-0.488 0.218-0.488 0.487C443.946 263.331 444.165 263.549 444.435 263.549z"/>
			<path fill="#fff" d="M444.435 263.061"/>
			<path fill="#fff" d="M444.917 264.427v-0.307c0-0.655-0.965-0.648-0.965 0v1.253h0.001l-0.911 0.912c-0.086 0.086-0.097 0.089-0.267 0.089 0 0-0.557 0-0.557 0 -0.562 0-0.897 0.505-0.897 0.932s0.336 0.968 0.947 0.968c0 0 0.759 0 0.993 0s0.519-0.089 0.753-0.311l2.908-2.899c0.063-0.055 0.098-0.073 0.204-0.073 0 0 0.4 0 0.718 0 0.346 0 0.835-0.392 0.835-0.957 0-0.559-0.493-0.931-0.863-0.933h-1.134c-0.234 0-0.536 0.096-0.716 0.276L444.917 264.427 444.917 264.427z"/>
			<path fill="#fff" d="M447.044 266.493h-1.02c-0.279 0-0.291 0.431 0 0.431h0.522l-0.993 0.993c-0.22 0.22 0.092 0.539 0.325 0.305l0.979-0.98v0.517c-0.002 0.28 0.434 0.291 0.434 0v-1.012C447.291 266.595 447.19 266.493 447.044 266.493z"/>
			<path fill="#454545" d="M446.752 263.585h1.02c0.248 0 0.415 0.277 0.415 0.443s-0.118 0.474-0.422 0.474h-0.613c-0.259 0-0.375 0.037-0.523 0.186l-2.931 2.931c-0.119 0.118-0.27 0.166-0.462 0.166h-0.967c-0.248 0-0.467-0.21-0.467-0.486s0.209-0.43 0.424-0.43h0.663c0.192 0 0.321-0.055 0.431-0.166l2.979-2.98C446.422 263.601 446.544 263.585 446.752 263.585z"/>
		</g>
		<g class="toilet-women" transform="translate(-8.29e-2,-0.5853944)">
			<path fill="#454545" d="M518.599 275.207c-0.575 0-0.897 0.297-0.897 0.904v6.255c0 0.567 0.29 0.864 0.864 0.864h6.281c0.573 0 0.864-0.282 0.864-0.864v-6.255c0-0.592-0.291-0.904-0.883-0.904C524.829 275.207 518.599 275.206 518.599 275.207z"/>
			<path fill="#fff" d="M521.711 277.434c0.222 0 0.401-0.179 0.401-0.401s-0.18-0.401-0.401-0.401c-0.22 0-0.4 0.179-0.4 0.401S521.491 277.434 521.711 277.434z"/>
			<path fill="#fff" d="M521.651 279.978v1.389c0 0.252-0.378 0.252-0.378 0v-1.379h-0.506l0.541-1.883h-0.083l-0.316 1.062c-0.075 0.232-0.394 0.137-0.32-0.111l0.351-1.154c0.037-0.131 0.204-0.365 0.492-0.365h0.265l0 0h0.286c0.287 0 0.453 0.235 0.496 0.365l0.352 1.153c0.069 0.248-0.246 0.35-0.321 0.108l-0.315-1.058h-0.091l0.547 1.883h-0.509v1.381c0 0.25-0.376 0.25-0.376 0v-1.391H521.651z"/>
		</g>
		<g class="toilet-men">
			<path fill="#454545" d="M536.924 274.519c-0.571 0-0.893 0.295-0.893 0.899v6.222c0 0.565 0.289 0.86 0.859 0.86h6.249c0.57 0 0.86-0.281 0.86-0.86v-6.222c0-0.589-0.29-0.899-0.878-0.899C543.122 274.519 536.922 274.517 536.924 274.519z"/>
			<path fill="#fff" d="M539.993 276.697c0.235 0 0.427-0.191 0.427-0.427 0-0.235-0.191-0.427-0.427-0.427s-0.427 0.191-0.427 0.427C539.566 276.506 539.758 276.697 539.993 276.697z"/>
			<path fill="#fff" d="M539.536 276.791c-0.302 0-0.545 0.247-0.545 0.554v1.311c0 0.255 0.373 0.255 0.373 0v-1.199h0.089v3.282c0 0.341 0.496 0.331 0.496 0v-1.905h0.085v1.905c0 0.331 0.5 0.341 0.5 0v-3.282h0.085v1.199c0 0.257 0.372 0.257 0.371 0v-1.303c0-0.284-0.22-0.561-0.553-0.561L539.536 276.791z"/>
		</g>
	</g>
	<g id="logos">
		<g id="macys-logo">
			<path d="M370.326 246.253c0-0.717-0.297-1.406-0.832-1.943 -0.576-0.576-1.365-0.907-2.164-0.907 -1.57 0-2.85 1.279-2.85 2.85 0 1.528 0.728 2.351 2.69 3.036 2.039 0.768 2.957 1.686 2.957 2.973 0 1.605-1.307 2.912-2.912 2.912 -0.762 0-1.488-0.314-2.048-0.881 -0.623-0.631-0.981-1.528-1.032-2.549l-0.635 0.002c0.05 1.188 0.477 2.243 1.214 2.992 0.679 0.69 1.566 1.071 2.5 1.071 0.947 0 1.836-0.369 2.508-1.039 0.67-0.669 1.039-1.56 1.039-2.508 0-2.063-1.928-3.024-3.377-3.57 -1.699-0.593-2.27-1.208-2.27-2.439 0-0.591 0.229-1.148 0.648-1.565 0.418-0.419 0.976-0.649 1.566-0.649 0.629 0 1.256 0.262 1.713 0.72 0.42 0.417 0.648 0.947 0.648 1.494H370.326L370.326 246.253z"/>
			<path d="M348.87 255.033c-3.012 0-5.455-2.444-5.455-5.457 0-3.011 2.443-5.454 5.455-5.454 2.158 0 4.025 1.254 4.907 3.074l0.758-0.013c-0.935-2.207-3.119-3.755-5.665-3.755 -3.395 0-6.148 2.753-6.148 6.148 0 3.396 2.753 6.149 6.148 6.149 2.559 0 4.752-1.563 5.678-3.785l-0.771 0.018C352.895 253.777 351.028 255.033 348.87 255.033z"/>
			<path d="M341.674 246.75c-1.023-1.973-3.082-3.321-5.458-3.321 -3.396 0-6.149 2.753-6.149 6.148 0 3.396 2.753 6.149 6.149 6.149 2.376 0 4.435-1.349 5.458-3.323v3.356h0.696v-12.018h-0.696V246.75zM336.216 255.033c-3.011 0-5.456-2.444-5.456-5.457 0-3.011 2.445-5.454 5.456-5.454 3.012 0 5.454 2.442 5.454 5.454C341.67 252.589 339.229 255.033 336.216 255.033z"/>
			<path d="M324.95 243.47c-1.927 0-3.573 1.192-4.248 2.878 -0.675-1.686-2.32-2.878-4.248-2.878 -1.651 0-3.095 0.878-3.9 2.192v-1.92h-0.692v12.018h0.692v-8.127c0.207-1.97 1.874-3.507 3.9-3.507 2.043 0 3.714 1.56 3.901 3.554v8.081h0.692v-8.081c0.187-1.994 1.859-3.554 3.902-3.554 2.097 0 3.805 1.648 3.911 3.72h-0.012v7.915h0.694v-7.915h-0.029C329.406 245.41 327.408 243.47 324.95 243.47z"/>
			<polygon points="359.088,254.652 354.709,243.743 353.98,243.743 358.713,255.578 356.932,259.972 357.689,260 364.298,243.743      363.513,243.743    "/>
			<polygon points="365.797,241.055 365.495,240.124 365.191,241.055 364.204,241.055 365.003,241.634 364.701,242.565      365.494,241.989 366.289,242.567 365.986,241.632 366.781,241.055    "/>
			<polygon fill="#E11A2B" points="304.524,248.167 302.997,243.478 301.47,248.167 296.5,248.167 300.527,251.083 299.001,255.774      302.99,252.872 307.002,255.788 305.47,251.075 309.479,248.167    "/>
		</g>
		<g id="sears-logo">
			<path fill="#214292" d="M152.222 182.122c0.218 3.448 2.793 5.443 6.169 5.443 2.432 0 5.915-0.726 5.915-3.956 0-3.157-3.193-3.628-6.387-4.282 -3.229-0.653-6.422-1.488-6.422-5.298 0-3.701 3.592-4.791 6.75-4.791 3.955 0 6.896 1.705 6.896 5.952h-1.379c-0.036-3.375-2.395-4.754-5.516-4.754 -2.541 0-5.371 0.943-5.371 3.593 0 2.976 3.194 3.447 6.207 4.101 3.701 0.69 6.604 1.561 6.604 5.48 0 4.029-4.028 5.153-7.294 5.153 -4.246 0-7.44-2.286-7.549-6.64H152.222L152.222 182.122z"/>
			<path fill="#214292" d="M144.274 173.811h0.108c0.726-2.431 3.774-4.39 7.149-4.247v1.379c-1.451-0.18-3.484 0.183-5.152 1.815 -1.38 1.416-1.961 2.577-2.105 5.371v10.199h-1.379v-18.654h1.379V173.811z"/>
			<path fill="#214292" d="M139.919 188.24h-1.38v-3.614h-0.072c-0.872 2.213-3.375 4.136-6.932 4.136 -3.52 0-6.242-1.342-6.242-5.262 0-4.355 3.774-5.262 6.859-5.516 6.169-0.435 6.423-0.834 6.423-3.883 0-0.834-0.944-3.665-5.19-3.665 -3.338 0-5.551 1.742-5.734 4.972h-1.379c0.182-4.101 2.721-6.17 7.113-6.17 3.266 0 6.533 1.016 6.533 4.863V188.24zM138.54 177.731c-1.087 1.234-4.064 1.088-6.75 1.452 -3.265 0.363-5.116 1.524-5.116 4.319 0 2.25 1.633 4.064 4.898 4.064 6.278 0 6.967-5.372 6.967-6.351V177.731L138.54 177.731z"/>
			<path fill="#214292" d="M109.292 179.183c-0.074 4.391 2.25 8.382 6.858 8.382 3.521 0 6.024-2.104 6.677-5.553h1.38c-0.726 4.355-3.629 6.75-8.057 6.75 -5.443 0-8.311-4.282-8.237-9.436 -0.073-5.117 2.612-10.088 8.237-10.088 5.844 0 8.455 4.608 8.202 9.944H109.292zM122.973 177.985c-0.074-3.919-2.541-7.549-6.823-7.549 -4.138 0-6.569 3.847-6.858 7.549H122.973z"/>
			<path fill="#214292" d="M93.36 182.122c0.219 3.448 2.795 5.443 6.169 5.443 2.432 0 5.916-0.726 5.916-3.956 0-3.157-3.193-3.628-6.386-4.282 -3.231-0.653-6.424-1.488-6.424-5.298 0-3.701 3.592-4.791 6.75-4.791 3.955 0 6.895 1.705 6.895 5.952h-1.379c-0.036-3.375-2.395-4.754-5.516-4.754 -2.54 0-5.371 0.943-5.371 3.593 0 2.976 3.192 3.447 6.206 4.101 3.701 0.69 6.604 1.561 6.604 5.48 0 4.029-4.028 5.153-7.295 5.153 -4.246 0-7.44-2.286-7.548-6.64H93.36z"/>
		</g>
		<g id="jcpenney-logo">
			<path fill="#D9282C" d="M312.148 436.751c-0.773-0.773-1.59-2.177-1.255-3.621l-0.029-0.029 -3.898 3.898 -1.241-1.241 10.438-10.438 1.241 1.241 -1.022 1.021 0.029 0.029c1.242-0.425 2.571 0.174 3.608 1.211 1.492 1.491 1.738 3.262 1.16 4.902l9.762-9.763 -20.707-20.706 -20.14 20.139 20.707 20.707 6.179-6.179C315.362 438.489 313.627 438.229 312.148 436.751zM299.01 425.188c-1.343 1.344-2.642 1.212-3.737 0.117 -0.204-0.205-0.408-0.439-0.584-0.701l1.066-1.066c0.145 0.205 0.306 0.366 0.481 0.541 0.54 0.54 0.964 0.438 1.738-0.336l8.306-8.306 1.241 1.241L299.01 425.188zM308.879 415.319l-1.241-1.24 1.519-1.52 1.241 1.241L308.879 415.319zM304.266 428.868c-2.307-2.307-1.927-5.139 0.322-7.388 2.263-2.263 5.212-2.877 7.606-0.483 1.708 1.709 2.278 3.884 0.657 5.856l-1.285-1.285c0.759-1.14 0.658-2.351-0.364-3.373 -1.796-1.796-3.768-0.934-5.3 0.599 -1.387 1.387-2.132 3.387-0.555 4.963 1.198 1.198 2.613 1.213 3.913 0.234l1.27 1.27C308.412 430.823 306.164 430.766 304.266 428.868z"/>
			<path fill="#D9282C" d="M313.595 430.282c-1.49 1.49-2.191 3.533-0.483 5.241 1.694 1.694 3.708 0.818 5.183-0.656 1.417-1.417 2.059-3.519 0.453-5.125C317.084 428.079 315.01 428.867 313.595 430.282z"/>
			<path fill="#D9282C" d="M325.478 444.939c-2.001 1.329-4.103 1.038-5.797-0.656 -2.409-2.409-1.883-5.212 0.351-7.591 2.263-2.263 5.417-2.439 7.476-0.381 2.671 2.672 0.993 5.985-0.905 7.738l-5.65-5.65c-1.358 1.271-1.781 3.184-0.132 4.832 1.022 1.022 2.234 1.241 3.432 0.482L325.478 444.939zM326.384 441.642c1.123-1.242 1.182-3.081-0.044-4.308 -1.3-1.3-3.052-1.095-4.292-0.03L326.384 441.642z"/>
			<path fill="#D9282C" d="M331.739 440.897l1.168 1.168 -1.197 1.196 0.029 0.029c1.461-0.411 2.746-0.001 3.826 1.079 1.985 1.985 1.458 3.738-0.162 5.357l-4.964 4.965 -1.241-1.24 5.109-5.109c0.921-0.922 0.936-2.104-0.014-3.053 -1.503-1.504-3.241-1.226-4.599 0.133l-4.263 4.263 -1.241-1.241L331.739 440.897z"/>
			<path fill="#D9282C" d="M339.272 448.431l1.167 1.167 -1.197 1.196 0.029 0.029c1.462-0.41 2.746 0 3.826 1.079 1.986 1.986 1.458 3.739-0.161 5.358l-4.964 4.965 -1.24-1.24 5.109-5.109c0.921-0.922 0.935-2.104-0.014-3.053 -1.504-1.504-3.241-1.227-4.599 0.132l-4.263 4.263 -1.241-1.24L339.272 448.431z"/>
			<path fill="#D9282C" d="M348.092 467.554c-2.001 1.328-4.104 1.037-5.797-0.657 -2.408-2.408-1.883-5.211 0.351-7.591 2.263-2.263 5.417-2.439 7.476-0.381 2.672 2.672 0.993 5.985-0.905 7.737l-5.649-5.649c-1.358 1.271-1.782 3.184-0.131 4.834 1.021 1.021 2.233 1.239 3.43 0.479L348.092 467.554zM348.996 464.253c1.125-1.24 1.183-3.08-0.044-4.307 -1.299-1.299-3.051-1.093-4.292-0.028L348.996 464.253z"/>
			<path fill="#D9282C" d="M348.47 474.736c-2.044 0.906-3.095 0.934-4.204-0.176 -0.292-0.292-0.555-0.612-0.73-0.991l1.139-1.139c0.16 0.305 0.307 0.655 0.555 0.902 0.511 0.512 1.036 0.541 1.708 0.338l1.795-0.773 4.51-10.496 1.401 1.4 -3.969 8.379 0.029 0.029 8.292-4.057 1.313 1.313L348.47 474.736z"/>
		</g>
		<g id="belk-logo">
			<path fill="#fff" d="M372.934 333.298c-0.44-0.09-0.864-0.223-1.269-0.393 -0.404-0.172-0.787-0.382-1.146-0.625 -0.357-0.241-0.692-0.518-0.999-0.824 -0.304-0.306-0.58-0.64-0.823-0.999 -0.24-0.358-0.45-0.742-0.62-1.146 -0.172-0.404-0.304-0.83-0.393-1.269 -0.091-0.441-0.138-0.897-0.138-1.36 0-0.465 0.047-0.922 0.137-1.359 0.089-0.44 0.221-0.866 0.394-1.27 0.17-0.406 0.38-0.79 0.622-1.149 0.242-0.356 0.518-0.692 0.822-0.997 0.307-0.306 0.641-0.582 1-0.826 0.359-0.241 0.742-0.451 1.145-0.622 0.403-0.172 0.829-0.304 1.269-0.395 0.44-0.09 0.894-0.137 1.358-0.137 0.464 0 0.918 0.047 1.358 0.137 0.44 0.091 0.863 0.223 1.267 0.395 0.405 0.171 0.788 0.381 1.146 0.622 0.36 0.244 0.694 0.521 1 0.826 0.306 0.304 0.579 0.64 0.821 0.996l0.534 0.79 -9.833 6.204c0.077 0.089 0.156 0.175 0.24 0.256 0.221 0.224 0.465 0.425 0.725 0.601 0.261 0.176 0.541 0.329 0.832 0.452 0.295 0.125 0.602 0.221 0.923 0.286 0.315 0.065 0.647 0.099 0.987 0.099s0.671-0.033 0.989-0.099c0.319-0.065 0.627-0.161 0.919-0.285 0.293-0.124 0.573-0.277 0.832-0.453 0.262-0.176 0.506-0.377 0.727-0.601 0.223-0.224 0.426-0.466 0.601-0.725 0.176-0.265 0.328-0.542 0.453-0.836l0.219-0.525 1.699 0.717 -0.223 0.527c-0.171 0.402-0.379 0.788-0.624 1.147 -0.242 0.359-0.516 0.692-0.821 0.998 -0.307 0.307-0.64 0.583-1.001 0.825 -0.355 0.242-0.738 0.452-1.145 0.624 -0.403 0.17-0.828 0.303-1.267 0.393 -0.44 0.09-0.895 0.138-1.358 0.138C373.828 333.436 373.374 333.388 372.934 333.298M373.302 321.871c-0.318 0.063-0.625 0.161-0.92 0.286 -0.292 0.123-0.571 0.273-0.832 0.452 -0.261 0.176-0.504 0.377-0.726 0.598 -0.223 0.225-0.424 0.468-0.601 0.729 -0.175 0.261-0.327 0.539-0.451 0.834 -0.124 0.294-0.22 0.601-0.286 0.921 -0.065 0.317-0.1 0.648-0.1 0.99s0.035 0.672 0.1 0.988c0.044 0.218 0.103 0.428 0.174 0.632l8.086-5.104c-0.217-0.219-0.457-0.416-0.715-0.589 -0.262-0.179-0.539-0.329-0.831-0.453 -0.293-0.124-0.603-0.222-0.918-0.285 -0.321-0.066-0.651-0.1-0.991-0.1C373.953 321.771 373.621 321.805 373.302 321.871M353.618 326.682v-10.851h1.841v6.215c1.229-1.305 2.972-2.117 4.904-2.119h0.001c3.726 0.002 6.745 3.023 6.745 6.755 0 3.73-3.019 6.754-6.746 6.754C356.637 333.436 353.618 330.412 353.618 326.682M355.459 326.677v0.004c0.005 2.711 2.196 4.906 4.904 4.909 2.71-0.003 4.899-2.198 4.904-4.906 -0.005-2.714-2.195-4.907-4.903-4.912C357.656 321.776 355.466 323.967 355.459 326.677M391.464 333.305l-5.75-4.595v4.594h-1.842v-17.468h1.842v9.046l5.75-4.593h2.951l-8.146 6.507 8.146 6.509H391.464zM381.704 333.305h-0.573v-17.474h1.841v17.474H381.704z"/>
			<path fill="#8ED8F8" d="M346.923 328.018c2.751 0 5.31-3.004 5.31-3.004s-2.178-2.802-4.929-2.802c-2.753 0.002-4.984 2.864-4.984 2.864s1.436 2.61 4.49 2.93"/>
			<defs>
				<rect id="SVGID_1_" x="342.32" y="315.831" width="53.18" height="21.242"/>
			</defs>
			<clipPath id="SVGID_2_">
				<use xlink:href="#SVGID_1_" overflow="visible"/>
			</clipPath>
			<path clip-path="url(#SVGID_2_)" fill="#008FD5" d="M343.113 317.103c0-0.701 0.057-1.155 0.057-1.155s4.627-0.572 7.129 1.935c1.719 1.72 1.988 4.444 1.988 5.982 0 0.637-0.046 1.069-0.054 1.143 -0.358-0.431-2.428-2.795-4.928-2.795 -0.867 0-1.682 0.284-2.392 0.674C343.363 321.16 343.113 318.584 343.113 317.103"/>
			<path fill="#25408F" d="M344.912 322.886c0.71-0.39 1.525-0.674 2.392-0.674 2.5 0 4.57 2.363 4.928 2.795l-0.002 0.012c0 0-4.627 0.571-7.13-1.933C345.036 323.02 344.973 322.954 344.912 322.886"/>
			<path fill="#77BAE7" d="M346.557 329.938c0-0.551 0.031-1.359 0.305-2.116 0.047-0.13 0.279 0.013 0.42 0.013 2.553 0 4.657-2.462 4.948-2.819 0.004 0.032 0.035 0.307 0.035 0.717 0 0.957-0.167 2.651-1.236 3.723 -1.558 1.56-4.436 1.202-4.436 1.202S346.557 330.375 346.557 329.938"/>
			<path fill="#0072BC" d="M346.801 328.005c0.187-0.614 0.482-1.22 0.941-1.704 1.575-1.665 4.487-1.285 4.487-1.285v0.003c-0.294 0.381-2.423 3.01-5.005 3.01C347.082 328.028 346.941 328.021 346.801 328.005"/>
		</g>
		<g id="zara-logo">
			<path fill-rule="evenodd" clip-rule="evenodd" fill="#fff" d="M434.774 221.46c0 0.609-0.508 1.103-0.892 1.103l0 0h-4.332L435 213.86h-7.286v1.442h0.374l0 0c0-0.609 0.395-1.103 0.777-1.103l0 0h3.745l-5.481 8.704h7.903l0.001-1.442H434.774L434.774 221.46 434.774 221.46 434.774 221.46z"/>
			<path fill-rule="evenodd" clip-rule="evenodd" fill="#fff" d="M441.125 222.62c0.528 0 1.043-0.219 0.927-0.422l0 0 -1.013-2.01h-3.563l-0.93 2.015 0 0c-0.098 0.226 0.311 0.417 0.691 0.417l0 0v0.283h-2.055v-0.283l0 0c0.527 0 0.899-0.232 0.968-0.415l0 0 3.863-8.345 4.216 8.338 0 0c0.135 0.219 0.529 0.422 1.178 0.422l0 0 -0.001 0.283h-4.281V222.62L441.125 222.62 441.125 222.62 441.125 222.62zM437.63 219.862l1.542-3.384 1.723 3.384H437.63L437.63 219.862 437.63 219.862 437.63 219.862z"/>
			<path fill-rule="evenodd" clip-rule="evenodd" fill="#fff" d="M445.898 214.209c0.627 0 1.145 0.162 1.145 0.357 0 1.551-0.003 7.625 0 7.625 0 0.207-0.512 0.438-1.138 0.438l0 0 -0.002 0.274h4.191v-0.255l0 0c-0.623 0-1.127-0.249-1.127-0.456l0 0v-8.06h1.208l0 0c1.164 0 2.106 0.967 2.106 2.064s-0.943 1.986-2.107 1.986l0 0h-0.836l0 0c0 0 2.832 4.289 2.836 4.289 0.112 0.163 0.168 0.432 0.168 0.432l0 0h3.054v-0.255l0 0c-0.589 0-0.896-0.244-1.065-0.457l0 0 -2.728-3.558 0 0c1.308-0.086 2.322-1.146 2.322-2.401 0-1.312-1.127-2.372-2.519-2.372l0 0h-5.509V214.209L445.898 214.209 445.898 214.209 445.898 214.209z"/>
			<path fill-rule="evenodd" clip-rule="evenodd" fill="#fff" d="M461.624 222.629c0.529 0 1.044-0.228 0.928-0.431l0 0 -1.014-2.01h-3.563l-0.93 2.015 0 0c-0.097 0.226 0.311 0.444 0.692 0.444l0 0v0.255h-2.057v-0.274l0 0c0.528 0 0.9-0.241 0.969-0.424l0 0 3.863-8.345 4.216 8.338 0 0c0.135 0.219 0.529 0.44 1.178 0.44l0 0 -0.001 0.265h-4.281V222.629L461.624 222.629 461.624 222.629 461.624 222.629zM458.129 219.862l1.542-3.384 1.723 3.384H458.129L458.129 219.862 458.129 219.862 458.129 219.862z"/>
		</g>
		<g id="starbucks-logo">
			<path fill="#007654" d="M609.279 408.411c0-6.637 5.38-12.017 12.018-12.017 6.637 0 12.017 5.38 12.017 12.017 0 6.638-5.38 12.018-12.017 12.018C614.659 420.429 609.279 415.049 609.279 408.411"/>
			<path fill="#fff" d="M609.634 408.411c0-6.44 5.222-11.662 11.663-11.662 6.44 0 11.663 5.222 11.663 11.662 0 6.441-5.223 11.663-11.663 11.663C614.855 420.074 609.634 414.853 609.634 408.411"/>
			<path fill="#007654" d="M610.013 408.411c0-6.23 5.052-11.282 11.284-11.282 6.23 0 11.283 5.052 11.283 11.282 0 6.232-5.053 11.283-11.283 11.283C615.064 419.694 610.013 414.644 610.013 408.411"/>
			<path fill="#fff" d="M614.322 408.364c0-3.838 3.11-6.949 6.948-6.949 3.837 0 6.948 3.111 6.948 6.949 0 3.837-3.111 6.947-6.948 6.947C617.433 415.312 614.322 412.201 614.322 408.364"/>
			<path fill="#fff" d="M622.369 398.123c0.19 0.17 0.244 0.395 0.234 0.644 -0.054 0.177-0.151 0.347-0.308 0.469 0.19 0.142 0.381 0.289 0.41 0.543 0.054 0.249-0.02 0.473-0.161 0.659 -0.298 0.337-0.771 0.249-1.201 0.263l-1.136 0.03 -0.008-0.104 -0.116-2.577 -0.006-0.058C620.826 397.988 621.705 397.795 622.369 398.123"/>
			<path fill="#fff" d="M624.484 398.485c-0.201 0.579-0.464 1.151-0.606 1.761 -0.015 0.152 0.076 0.309 0.249 0.352 0.12 0.066 0.291 0.079 0.381 0 0.386-0.542 0.569-1.216 0.812-1.823 0.308 0.107 0.547 0.261 0.845 0.373 -0.318 0.675-0.513 1.469-0.952 2.022 -0.318 0.278-0.82 0.21-1.202 0.116 -0.435-0.155-0.908-0.435-1.04-0.922 -0.103-0.335 0.362-1.482 0.616-2.169L624.484 398.485"/>
			<path fill="#fff" d="M617.446 401.698l-0.646 0.424c-0.24-0.127-0.381-0.213-0.556-0.293l-0.714 0.601c0.073 0.177 0.166 0.392 0.245 0.587l-0.638 0.713 -0.051-0.113 -1.129-2.681 1.031-0.887 0.082 0.052c0.809 0.494 1.64 1.075 2.459 1.541L617.446 401.698"/>
			<path fill="#fff" d="M617.607 401.6c-0.339-0.825-0.753-1.79-1.06-2.564 0.776-0.313 1.899-1.081 2.593-0.366 0.176 0.196 0.2 0.469 0.205 0.718 -0.044 0.161-0.083 0.322-0.189 0.454 0.231 0.286 0.661 0.609 0.959 0.893l-0.037 0.013 -0.879 0.194c-0.313-0.252-0.489-0.429-0.762-0.615 -0.117 0.014-0.197 0.083-0.308 0.132l0.303 0.693L617.607 401.6"/>
			<path fill="#007654" d="M621.607 398.577c0.068 0.072 0.054 0.224 0.015 0.307 -0.127 0.147-0.361 0.142-0.557 0.117 0.015-0.166-0.047-0.327-0.035-0.497C621.196 398.527 621.485 398.444 621.607 398.577"/>
			<path fill="#007654" d="M618.384 399.25c0.049 0.123 0.052 0.321-0.053 0.394l-0.483 0.205c-0.12-0.223-0.172-0.373-0.255-0.555C617.817 399.211 618.203 398.875 618.384 399.25"/>
			<path fill="#007654" d="M621.769 399.689c0.038 0.172-0.039 0.348-0.205 0.382 -0.156 0.023-0.273 0.01-0.44 0.015 -0.023-0.176-0.038-0.41-0.023-0.558C621.324 399.558 621.661 399.437 621.769 399.689"/>
			<path fill="#fff" d="M628.361 400.643c0.166 0.205 0.279 0.459 0.352 0.718 -0.205 0.109-0.361 0.234-0.557 0.322 -0.049-0.303-0.215-0.61-0.513-0.762 -0.142-0.084-0.352-0.098-0.513-0.045 -0.249 0.094-0.464 0.309-0.557 0.558 -0.083 0.239 0.01 0.474 0.146 0.659 0.19 0.215 0.445 0.327 0.732 0.337 -0.13 0.213-0.199 0.347-0.322 0.513 -0.479-0.068-0.928-0.332-1.201-0.776 -0.234-0.376-0.249-0.952-0.044-1.348 0.215-0.435 0.64-0.713 1.099-0.776C627.536 400.021 628.034 400.242 628.361 400.643"/>
			<path fill="#007654" d="M615.673 401.463c-0.131 0.122-0.278 0.239-0.438 0.352 -0.117-0.278-0.23-0.528-0.352-0.836C615.163 401.128 615.409 401.302 615.673 401.463"/>
			<path fill="#fff" d="M629.826 402.371c-0.224 0.225-0.522 0.415-0.762 0.63 0.381 0.083 0.811 0.068 1.202 0.132 0.176 0.255 0.268 0.498 0.439 0.806l-1.436-0.103c-0.318 0.499-0.605 1.006-0.88 1.523 -0.171-0.249-0.303-0.571-0.469-0.849 0.186-0.377 0.428-0.774 0.613-1.15 -0.319 0.197-0.601 0.454-0.926 0.659l-0.508-0.682c0.684-0.586 1.421-1.108 2.139-1.64l0.059-0.021L629.826 402.371"/>
			<path fill="#fff" d="M613.705 402.19c-0.129 0.269-0.3 0.452-0.419 0.708l1.67 1.099c-0.089 0.249-0.278 0.494-0.439 0.732l-1.715-1.069c-0.153 0.202-0.264 0.41-0.417 0.669 -0.226-0.148-0.384-0.246-0.564-0.375 0.425-0.709 0.828-1.373 1.296-2.108L613.705 402.19"/>
			<path d="M627.717 408.612c-0.757 0.299-1.255-0.459-1.978-0.453 -0.094-0.108-0.118-0.24-0.162-0.367 0.815-0.264 1.353 0.913 2.154 0.308 -0.063-0.991-0.273-1.924-0.732-2.754 -0.479-0.948-1.362-1.881-2.286-2.447 -1.738-1.23-4.571-1.318-6.417-0.264 -2.065 1.05-3.312 3.185-3.473 5.392l0.06 0.118c0.775 0.414 1.279-0.499 2.036-0.396 0.171 0.078-0.035 0.21-0.029 0.323 -0.06 0.146-0.265 0.077-0.396 0.116 -0.518 0.225-1.049 0.659-1.654 0.425 0 0 0.003 0.045 0.008 0.11 0.013 0.166 0.036 0.461 0.036 0.461 0.679 0.216 1.118-0.493 1.758-0.41 -0.016 0.143-0.025 0.294-0.103 0.396 -0.586 0.03-0.953 0.581-1.568 0.543l0.118 0.468c0.532 0.055 0.873-0.493 1.405-0.438l-0.014 0.352c-0.469 0.044-0.771 0.483-1.245 0.513 0.063 1.084 0.815-0.166 1.289 0.044 0.02 0.117 0.088 0.229 0.044 0.352 -0.381-0.005-0.62 0.327-0.952 0.439 0.058 0.137 0.098 0.332 0.248 0.381 0.284-0.117 0.514-0.366 0.851-0.352 -0.039-0.128-0.073-0.298-0.059-0.41 0.425 0.112 0.669-0.22 0.967-0.41 0.068-0.601 0.488-1.06 0.747-1.582 0.027-0.116 0.037-0.23 0.035-0.345 -0.014-0.635-0.396-1.249-0.094-1.912 0.093-0.259 0.254-0.601 0.527-0.674 -0.503 0.601-0.41 1.519-0.146 2.197 0.054 0.138 0.073 0.267 0.068 0.389 -0.023 0.536-0.522 0.943-0.713 1.429 -0.239 0.482-0.02 1.035 0.249 1.436 -0.386 0.298-0.742 0.679-1.245 0.688 -0.142-0.068-0.147-0.264-0.221-0.396 -0.297-0.059-0.536 0.146-0.775 0.293l0.278 0.353c0.205-0.099 0.439-0.309 0.674-0.162 0.347 0.41-0.338 0.205-0.425 0.454 0.098 0.132 0.215 0.229 0.337 0.338 0.142-0.045 0.254-0.156 0.425-0.133 0.068 0.084 0.146 0.166 0.176 0.264l-0.264 0.161c0.19 0.196 0.43 0.381 0.659 0.47 0.137-0.46 0.503-0.816 0.674-1.261 0.034-0.171 0.044-0.376 0.088-0.527 0.493 0.767-0.542 1.221-0.542 1.949 0.107 0.097 0.239 0.151 0.366 0.204 -0.02-0.57 0.46-0.937 0.659-1.421 0.367-0.767-0.478-1.245-0.747-1.86 -0.253-0.558 0.103-1.079 0.454-1.494 0.245-0.265 0.309-0.524 0.287-0.784 -0.049-0.59-0.534-1.181-0.331-1.839 0.118-0.41 0.294-0.898 0.718-1.069 -0.308 0.355-0.469 0.771-0.498 1.245 -0.085 0.644 0.431 1.09 0.46 1.663 0.005 0.114-0.008 0.233-0.05 0.358 -0.239 0.518-0.781 0.908-0.776 1.524 -0.063 0.81 0.997 1.118 0.879 1.948 -0.009 0.724-0.84 1.123-0.659 1.904l0.454 0.147c-0.259-0.88 0.655-1.368 0.659-2.154 0.044-0.664-0.669-1.011-0.85-1.582 -0.189-0.566 0.226-1.021 0.542-1.45 0.156-0.244 0.193-0.473 0.168-0.696 -0.063-0.554-0.511-1.072-0.49-1.678 -0.01-0.557 0.234-1.104 0.718-1.362 -0.146 0.209-0.312 0.41-0.396 0.645 -0.303 0.821 0.206 1.523 0.455 2.227 0.019 0.058 0.032 0.114 0.04 0.169 0.094 0.651-0.573 1.067-0.7 1.663 -0.171 0.723 0.605 1.055 0.776 1.655 0.367 0.981-0.82 1.553-0.542 2.535 -0.005 0.288 0.333 0.176 0.514 0.233 -0.439-0.81 0.268-1.479 0.482-2.182 0.24-0.753-0.478-1.178-0.775-1.759 -0.313-0.654 0.4-1.06 0.557-1.612 0.132-0.376 0.469-0.028 0.688-0.073 0.298 0.055 0.557-0.239 0.806-0.028 0.122 0.498 0.698 0.806 0.703 1.348 -0.02 0.839-1.235 1.279-0.85 2.198 0.317 0.64 0.859 1.371 0.498 2.108l0.454-0.102c0.303-0.758-0.259-1.338-0.527-1.949 -0.244-0.698 0.366-1.221 0.732-1.758 0.347-0.649-0.21-1.183-0.527-1.685 -0.109-0.207-0.132-0.404-0.105-0.594 0.056-0.402 0.331-0.775 0.457-1.15 0.269-0.639 0.117-1.436-0.381-1.919l0.015-0.015c0.249 0.146 0.474 0.405 0.586 0.659 0.428 0.859-0.185 1.62-0.336 2.425l-0.016 0.095c-0.015 0.566 0.45 0.836 0.674 1.29 0.376 0.732-0.288 1.25-0.659 1.802 -0.601 1.03 0.835 1.637 0.542 2.667l0.44-0.146c0.111-0.553-0.304-1.001-0.572-1.45 -0.371-0.753 0.293-1.334 0.674-1.905 0.337-0.713-0.249-1.313-0.586-1.861 -0.107-0.157-0.142-0.323-0.132-0.49 0.018-0.32 0.194-0.644 0.322-0.916 0.254-0.684 0.078-1.514-0.366-2.021 0.298 0.122 0.518 0.454 0.615 0.747 0.352 0.728-0.078 1.455-0.22 2.14l-0.002 0.051c-0.005 0.656 0.617 1.019 0.794 1.604 0.17 0.605-0.313 1.024-0.601 1.465 -0.865 0.898 0.482 1.572 0.468 2.462 0.127-0.055 0.294-0.079 0.366-0.206 -0.063-0.492-0.482-0.84-0.659-1.289 -0.01-0.215-0.059-0.479 0.088-0.645l0.029 0.03c-0.054 0.717 0.572 1.151 0.762 1.772 0.221-0.133 0.449-0.26 0.631-0.455 -0.068-0.067-0.171-0.121-0.264-0.161 -0.05-0.106 0.093-0.21 0.161-0.308l0.409 0.146c0.123-0.112 0.255-0.205 0.323-0.352 -0.147-0.103-0.308-0.176-0.483-0.205 -0.006-0.112 0.058-0.2 0.131-0.278 0.25-0.01 0.445 0.108 0.646 0.205 0.107-0.097 0.225-0.224 0.263-0.365l-0.526-0.265c-0.362-0.229-0.264 0.269-0.439 0.381 -0.493-0.02-0.845-0.366-1.216-0.674 0.043-0.225 0.219-0.396 0.277-0.615 0.215-0.719-0.356-1.26-0.674-1.832 -0.079-0.14-0.108-0.278-0.107-0.417 0.003-0.39 0.24-0.776 0.254-1.18 0.122-0.522-0.122-1.025-0.322-1.45 0.137 0.083 0.283 0.195 0.366 0.336 0.273 0.538 0.352 1.285 0.104 1.862 -0.062 0.153-0.082 0.297-0.074 0.432 0.04 0.675 0.798 1.147 0.807 1.868 0.292 0.22 0.557 0.586 0.951 0.469 0.03 0.142-0.048 0.292-0.043 0.425 0.352-0.02 0.586 0.244 0.894 0.337 0.073-0.127 0.199-0.254 0.19-0.396 -0.347-0.103-0.596-0.444-0.981-0.454l0.072-0.338c0.406-0.009 0.703 0.333 1.085 0.426 0.132-0.099 0.176-0.278 0.22-0.439 -0.469-0.073-0.806-0.469-1.274-0.543 0.01-0.116-0.024-0.253 0.029-0.352 0.444 0 0.737 0.357 1.143 0.454 0.391 0.187 0.264-0.278 0.352-0.454 -0.62 0.024-0.997-0.551-1.597-0.57l-0.073-0.367c0.649-0.106 1.089 0.602 1.758 0.411 0.064-0.17 0.049-0.312 0.045-0.477L627.717 408.612z"/>
			<path fill="#fff" d="M621.622 403.06l0.791 0.044 -0.015 0.073 -0.586 0.557c0.103 0.249 0.205 0.499 0.308 0.747 0.444-0.258 0.869-0.58 1.406-0.615 -0.049 0.284-0.264 0.582-0.234 0.864 0.332-0.092 0.636-0.297 0.997-0.278 -0.226 0.415-0.553 0.83-0.572 1.348 -0.493-0.185-1.001-0.409-1.553-0.497 -1.177-0.2-2.311 0.058-3.282 0.527 -0.083-0.493-0.322-0.924-0.615-1.333 0.176-0.06 0.391 0.039 0.571 0.088 0.151 0.043 0.279 0.146 0.439 0.176 0.029-0.293-0.141-0.581-0.263-0.85 0.083-0.064 0.214-0.016 0.307 0.015 0.386 0.146 0.732 0.375 1.085 0.586 0.181-0.211 0.248-0.514 0.321-0.792l-0.601-0.542v-0.059l0.792-0.044c0.131-0.249 0.219-0.513 0.352-0.762C621.432 402.532 621.485 402.821 621.622 403.06"/>
			<path d="M621.9 404.656l-0.073 0.073c-0.366-0.039-0.752 0.01-1.1 0.015 -0.038-0.038-0.116-0.097-0.044-0.146l0.557-0.426C621.471 404.306 621.715 404.477 621.9 404.656"/>
			<path fill="#fff" d="M612.128 404.862c-0.304 0.234-0.518 0.576-0.454 0.967 0.034 0.058 0.067 0.146 0.146 0.161 0.244 0 0.327-0.264 0.439-0.425 0.131-0.293 0.386-0.611 0.732-0.645 0.298-0.02 0.553 0.058 0.747 0.293 0.298 0.356 0.244 0.933 0.103 1.348 -0.132 0.309-0.337 0.62-0.63 0.82l-0.527-0.322c0.288-0.199 0.591-0.527 0.63-0.894 0-0.132-0.028-0.308-0.19-0.322 -0.337 0.098-0.371 0.503-0.601 0.732 -0.176 0.181-0.396 0.317-0.674 0.278 -0.259-0.016-0.479-0.176-0.631-0.381 -0.288-0.439-0.146-1.084 0.029-1.421 0.107-0.19 0.235-0.381 0.411-0.528C611.806 404.607 611.977 404.735 612.128 404.862"/>
			<path fill="#fff" d="M631.263 405.243c0.254 0.41 0.353 0.952 0.22 1.45l-0.542-0.029c0.073-0.327 0.127-0.737-0.104-1.011 -0.067-0.083-0.19-0.133-0.278-0.088 -0.297 0.332 0.025 0.811-0.16 1.187 -0.088 0.171-0.22 0.376-0.41 0.454 -0.309 0.117-0.689 0.059-0.924-0.176 -0.459-0.479-0.674-1.221-0.38-1.846h0.57c-0.097 0.244-0.165 0.591-0.072 0.878 0.048 0.123 0.107 0.278 0.249 0.323 0.469 0.017 0.15-0.654 0.264-0.967 0.043-0.234 0.17-0.479 0.41-0.586C630.545 404.617 631.058 404.862 631.263 405.243"/>
			<path fill="#fff" d="M616.89 406.166c0.474-0.181 1.118-0.493 1.626-0.161 -0.107 0.151-0.317 0.234-0.469 0.366 -0.249 0.244-0.552 0.542-0.732 0.85 -0.61-0.123-1.1 0.234-1.611 0.439 -0.195 0.039-0.454 0.059-0.615-0.073 0.482-0.796 1.166-1.528 0.996-2.578 0.054-0.094 0.146-0.015 0.205 0.015C616.665 405.316 616.846 405.722 616.89 406.166"/>
			<path fill="#fff" d="M626.53 405.126c-0.19 0.996 0.493 1.699 0.952 2.461 -0.527 0.352-1.025-0.19-1.523-0.322 -0.22-0.034-0.479-0.063-0.689-0.029 -0.303-0.469-0.707-0.908-1.201-1.173 0.029-0.16 0.254-0.171 0.411-0.189 0.434-0.044 0.815 0.137 1.172 0.322 0.068-0.161 0.098-0.342 0.146-0.513 0.118-0.288 0.348-0.581 0.646-0.704C626.506 404.989 626.55 405.058 626.53 405.126"/>
			<path fill="#fff" d="M622.457 406.034c0.015 0.083 0.098 0.156 0.044 0.249 -0.288-0.088-0.615-0.039-0.894 0.073 -0.25 0.186-0.21 0.566-0.146 0.835l0.073 0.06c0.122-0.03 0.127-0.187 0.234-0.221 0.181 0.044 0.43 0.107 0.601 0 0.151 0.006 0.146 0.215 0.161 0.322 -0.107 0.566-0.347 1.182-0.923 1.45 -0.239 0.118-0.547 0.039-0.777-0.044 -0.565-0.336-0.884-1.006-0.82-1.61 0.044-0.094 0.113-0.167 0.221-0.104 0.229 0.156 0.478-0.122 0.688 0.073 0.254-0.112 0.103-0.425 0.103-0.659 -0.205-0.264-0.557-0.225-0.864-0.206 -0.138-0.083 0.01-0.215 0.043-0.307 0.332-0.469 0.968-0.479 1.523-0.41C622.008 405.608 622.32 405.731 622.457 406.034"/>
			<path fill="#fff" d="M620.758 406.708v0.059c-0.167-0.015-0.436-0.181-0.586 0.03 -0.098 0.042-0.113-0.069-0.103-0.133 -0.02-0.073 0.024-0.132 0.088-0.146C620.387 406.464 620.645 406.532 620.758 406.708"/>
			<path fill="#fff" d="M622.501 406.635c-0.005 0.059 0.01 0.127-0.059 0.162 -0.186-0.074-0.444-0.177-0.63-0.03 -0.107-0.229 0.19-0.181 0.293-0.249C622.257 406.513 622.433 406.508 622.501 406.635"/>
			<path d="M621.563 407.572c-0.088 0.186-0.371 0.069-0.528 0.103 -0.053-0.02-0.019-0.078-0.029-0.117C621.162 407.45 621.441 407.436 621.563 407.572"/>
			<path d="M621.798 407.982c-0.117 0.177-0.293 0.396-0.527 0.382 -0.265 0.02-0.323-0.195-0.513-0.322l-0.015-0.089C621.095 408.008 621.48 407.938 621.798 407.982"/>
			<path fill="#fff" d="M612.67 410.269c0.296-0.002 0.58 0.01 0.885 0.003l-0.68 0.568c0.065 0.239 0.123 0.515 0.205 0.835l-0.674-0.469c-0.283 0.129-0.454 0.288-0.747 0.439l0.234-0.806c-0.223-0.183-0.472-0.354-0.682-0.541 0.307-0.008 0.575 0.005 0.872-0.001 0.137-0.257 0.198-0.55 0.322-0.806L612.67 410.269"/>
			<path fill="#fff" d="M616.142 414.122c0.06 0.141 0.145 0.253 0.181 0.466 -0.156 0.098-0.354 0.178-0.531 0.267 -0.044-0.322-0.328-0.636-0.646-0.719 -0.263-0.065-0.552 0.06-0.747 0.294 -0.161 0.19-0.21 0.464-0.161 0.703 0.128 0.332 0.479 0.582 0.835 0.582l0.103 0.003c-0.097 0.234-0.16 0.353-0.263 0.528 -0.592-0.02-1.188-0.366-1.407-0.938 -0.19-0.463-0.107-1.064 0.19-1.45 0.361-0.459 0.938-0.586 1.495-0.469C615.565 413.491 615.918 413.775 616.142 414.122"/>
			<path fill="#fff" d="M627.526 413.813l0.036 0.037 -0.878 0.818 0.292 0.354c0.249-0.195 0.518-0.402 0.784-0.652 0.137 0.115 0.247 0.25 0.376 0.401 -0.264 0.251-0.537 0.422-0.767 0.661 0.099 0.123 0.173 0.261 0.322 0.408l0.948-0.781 0.404 0.417c-0.537 0.511-1.123 1.036-1.68 1.443l-1.655-2.139c0.527-0.44 0.972-0.841 1.436-1.305C627.287 413.569 627.39 413.691 627.526 413.813"/>
			<path fill="#fff" d="M618.208 415.616c0.298 0.38 0.303 0.972 0.117 1.406 -0.207 0.442-0.605 0.723-1.04 0.82 -0.527 0.083-1.026-0.088-1.406-0.454 -0.337-0.371-0.523-0.903-0.352-1.421 0.15-0.562 0.698-0.972 1.26-1.04C617.368 414.894 617.905 415.162 618.208 415.616"/>
			<path fill="#007654" d="M617.593 415.968c0.166 0.386-0.024 0.767-0.293 1.04 -0.171 0.137-0.395 0.223-0.619 0.14 -0.142-0.068-0.316-0.193-0.355-0.345 -0.107-0.391 0.071-0.757 0.344-1.025 0.167-0.137 0.406-0.215 0.616-0.117C617.412 415.699 617.554 415.841 617.593 415.968"/>
			<path fill="#fff" d="M623.424 416.588c-0.41 0.059-0.803 0.107-1.194 0.171 0.04 0.193 0.022 0.322 0.052 0.469 0.366-0.007 0.687-0.072 1.028-0.116l0.1 0.626c-0.335 0.063-0.699 0.118-1.05 0.152 0.009 0.283 0.047 0.63 0.043 0.941 -0.289 0.045-0.6 0.076-0.897 0.057l-0.176-2.671 -0.003-0.056c0.662-0.064 1.333-0.149 1.966-0.253C623.319 416.109 623.38 416.341 623.424 416.588"/>
			<path fill="#fff" d="M625.665 415.387l0.024 0.046 -1.072 0.538 0.182 0.422c0.327-0.124 0.609-0.241 0.935-0.405 0.1 0.148 0.168 0.308 0.249 0.49 -0.295 0.156-0.601 0.278-0.922 0.419 0.06 0.146 0.09 0.251 0.195 0.482l1.129-0.484 0.271 0.516c-0.659 0.338-1.368 0.678-2.018 0.912l-0.988-2.518c0.629-0.273 1.168-0.533 1.744-0.848C625.504 415.086 625.568 415.231 625.665 415.387"/>
			<path fill="#fff" d="M620.927 416.892c-0.409-0.068-0.799-0.142-1.19-0.2 -0.021 0.195-0.077 0.313-0.093 0.462 0.351 0.104 0.675 0.14 1.015 0.202l-0.096 0.628c-0.337-0.044-0.701-0.102-1.047-0.176 -0.077 0.272-0.146 0.614-0.245 0.911 -0.288-0.047-0.595-0.111-0.872-0.22l0.645-2.599 0.016-0.054c0.649 0.141 1.314 0.264 1.948 0.358C620.972 416.404 620.959 416.644 620.927 416.892"/>
			<path fill="#fff" d="M630.422 410.272c0.295-0.001 0.559 0.007 0.885 0.003l-0.68 0.569c0.065 0.238 0.122 0.514 0.205 0.834l-0.674-0.469c-0.284 0.129-0.454 0.288-0.748 0.439l0.234-0.805c-0.222-0.183-0.471-0.355-0.681-0.541 0.307-0.008 0.575 0.004 0.871-0.002 0.12-0.267 0.205-0.523 0.323-0.807L630.422 410.272"/>
			<path fill="none" d="M633.524 408.507c0 6.884-5.501 12.472-12.278 12.472 -6.778 0-12.279-5.588-12.279-12.472s5.501-12.471 12.279-12.471C628.023 396.036 633.524 401.623 633.524 408.507z"/>
		</g>
		<g id="oldnavy-logo">
			<path fill-rule="evenodd" clip-rule="evenodd" fill="#0F4879" d="M341.951 115.839c-10.297 0-18.645 2.711-18.645 6.056 0 3.344 8.348 6.056 18.645 6.056s18.645-2.711 18.645-6.056C360.596 118.55 352.249 115.839 341.951 115.839L341.951 115.839z"/>
			<path fill-rule="evenodd" clip-rule="evenodd" fill="#fff" d="M331.52 121.896c0 1.385-0.712 2.407-1.948 2.407 -1.236 0-1.948-1.022-1.948-2.407 0-1.456 0.707-2.436 1.948-2.436C330.813 119.461 331.52 120.441 331.52 121.896L331.52 121.896z"/>
			<path fill-rule="evenodd" clip-rule="evenodd" fill="#0F4879" d="M328.879 121.907c0 0.504 0.047 1.476 0.695 1.476 0.647 0 0.694-0.972 0.694-1.476 0-0.513-0.067-1.539-0.694-1.539C328.946 120.368 328.879 121.394 328.879 121.907L328.879 121.907z"/>
			<polygon fill-rule="evenodd" clip-rule="evenodd" fill="#fff" points="334.587,124.233 332.213,124.233 332.213,119.531     333.408,119.531 333.408,123.42 334.587,123.42 334.587,124.233   "/>
			<path fill-rule="evenodd" clip-rule="evenodd" fill="#fff" d="M335.365 119.531h1.508c0.59 0 1.061 0.008 1.501 0.512 0.43 0.483 0.626 1.15 0.626 1.846 0 0.639-0.19 1.306-0.566 1.768 -0.405 0.504-0.912 0.576-1.478 0.576h-1.591V119.531L335.365 119.531z"/>
			<path fill-rule="evenodd" clip-rule="evenodd" fill="#0F4879" d="M336.801 123.367c0.167 0 0.274 0.016 0.429-0.096 0.113-0.088 0.202-0.208 0.268-0.361 0.143-0.32 0.191-0.689 0.191-1.058s-0.078-0.849-0.25-1.154c-0.197-0.329-0.387-0.312-0.673-0.312h-0.143v2.981H336.801L336.801 123.367z"/>
			<polygon fill-rule="evenodd" clip-rule="evenodd" fill="#fff" points="343.327,124.233 341.898,121.384 341.898,124.233     340.748,124.233 340.748,119.531 341.912,119.531 343.333,122.363 343.333,119.531 344.48,119.531 344.48,124.233     343.327,124.233   "/>
			<polygon fill-rule="evenodd" clip-rule="evenodd" fill="#fff" points="347.497,123.359 346.612,123.359 346.375,124.233     345.095,124.233 346.295,119.531 347.822,119.531 349.034,124.233 347.716,124.233 347.497,123.359   "/>
			<polygon fill-rule="evenodd" clip-rule="evenodd" fill="#0F4879" points="347.378,122.474 347.063,120.733 346.746,122.474     347.378,122.474   "/>
			<polygon fill-rule="evenodd" clip-rule="evenodd" fill="#fff" points="351.489,124.233 350.22,124.233 349.087,119.531     350.333,119.531 350.843,122.184 351.292,119.531 352.633,119.531 351.489,124.233   "/>
			<polygon fill-rule="evenodd" clip-rule="evenodd" fill="#fff" points="355.548,121.949 355.548,124.233 354.313,124.233     354.313,121.949 353.053,119.531 354.285,119.531 354.919,120.882 355.639,119.531 356.76,119.531 355.548,121.949   "/>
		</g>
		<g id="sportchek-logo">
			<polygon fill-rule="evenodd" clip-rule="evenodd" fill="#454545" points="215.989,120.574 193.697,120.574 193.697,139.197     215.989,139.197 238.282,139.197 238.282,120.574 215.989,120.574   "/>
			<polygon fill-rule="evenodd" clip-rule="evenodd" fill="#ED1C2E" points="204.097,133.708 207.137,135.984 228.406,131.432     204.097,133.708   "/>
			<path fill-rule="evenodd" clip-rule="evenodd" fill="#fff" d="M203.08 125.994h-0.066v3.835h0.694c0 0 0-1.353 0-1.475 0.104 0 0.499 0 0.499 0 0.699 0 1.187-0.491 1.187-1.196v-0.001c0-0.35-0.111-0.646-0.321-0.855 -0.201-0.201-0.479-0.308-0.805-0.308H203.08L203.08 125.994zM204.154 126.65c0.174-0.003 0.31 0.041 0.402 0.132 0.091 0.089 0.141 0.226 0.141 0.386 0 0.125-0.041 0.536-0.553 0.537 0 0-0.331 0-0.431 0 0-0.112 0-0.942 0-1.054C203.814 126.65 204.154 126.65 204.154 126.65L204.154 126.65z"/>
			<path fill-rule="evenodd" clip-rule="evenodd" fill="#fff" d="M203.641 129.762h-0.561v-3.7h1.188c0.663 0 1.059 0.456 1.059 1.096 0 0.658-0.45 1.129-1.12 1.129h-0.566V129.762L203.641 129.762zM204.144 127.771c0.454 0 0.62-0.304 0.62-0.604 0-0.3-0.161-0.594-0.61-0.585h-0.508v1.188H204.144L204.144 127.771z"/>
			<path fill-rule="evenodd" clip-rule="evenodd" fill="#fff" d="M210.863 126.06v3.766h0.7c0 0 0-3.048 0-3.177 0.112 0 0.687 0 0.687 0 0.164 0 0.306 0.054 0.403 0.152 0.089 0.091 0.135 0.216 0.132 0.362 -0.002 0.171-0.052 0.304-0.147 0.395 -0.109 0.104-0.281 0.154-0.508 0.147h-0.553l1.397 2.124h0.795c0 0-0.934-1.43-1.022-1.565 0.431-0.136 0.735-0.574 0.735-1.086 0-0.589-0.347-1.184-1.123-1.184l-1.497-0.001V126.06L210.863 126.06z"/>
			<path fill-rule="evenodd" clip-rule="evenodd" fill="#fff" d="M211.496 129.759h-0.566v-3.699l1.43 0c0.691 0.001 1.055 0.517 1.055 1.118 0 0.555-0.356 0.964-0.772 1.049l1.002 1.535c-0.004 0-0.63 0-0.634 0l-1.309-1.99h0.427c0.467 0.013 0.716-0.204 0.724-0.608 0.007-0.356-0.251-0.583-0.603-0.583h-0.754V129.759L211.496 129.759z"/>
			<polygon fill-rule="evenodd" clip-rule="evenodd" fill="#fff" points="230.181,125.994 229.557,125.994 229.557,129.824     230.248,129.824 230.248,125.994 230.181,125.994   "/>
			<polygon fill-rule="evenodd" clip-rule="evenodd" fill="#fff" points="230.181,129.757 229.624,129.757 229.624,126.062     230.181,126.062 230.181,129.757   "/>
			<path fill-rule="evenodd" clip-rule="evenodd" fill="#fff" d="M232.418 125.994h-0.732l-1.445 1.785 1.49 2.045h0.887c0 0-1.469-1.967-1.53-2.049 0.065-0.077 1.473-1.781 1.473-1.781H232.418L232.418 125.994z"/>
			<polygon fill-rule="evenodd" clip-rule="evenodd" fill="#fff" points="230.327,127.782 231.718,126.062 232.418,126.062     231.003,127.774 232.484,129.757 231.766,129.757 230.327,127.782   "/>
			<path fill-rule="evenodd" clip-rule="evenodd" fill="#fff" d="M206.057 127.912c0 0.523 0.205 1.016 0.575 1.386 0.378 0.376 0.88 0.584 1.414 0.584 0.536 0 1.038-0.208 1.416-0.584 0.371-0.371 0.575-0.863 0.575-1.386 0-0.525-0.206-1.02-0.581-1.394 -0.378-0.378-0.878-0.585-1.409-0.585C206.949 125.933 206.057 126.821 206.057 127.912L206.057 127.912zM206.789 127.908c0-0.356 0.136-0.701 0.375-0.946 0.235-0.243 0.549-0.376 0.882-0.376 0.334 0 0.648 0.134 0.884 0.376 0.237 0.245 0.374 0.589 0.374 0.946 0 0.729-0.564 1.322-1.258 1.322 -0.331 0-0.643-0.135-0.879-0.379C206.927 128.604 206.789 128.261 206.789 127.908L206.789 127.908z"/>
			<path fill-rule="evenodd" clip-rule="evenodd" fill="#fff" d="M208.045 125.999c-1.06 0-1.921 0.858-1.921 1.913 0 0.505 0.196 0.98 0.554 1.338 0.365 0.364 0.85 0.565 1.367 0.565 0.518 0 1.004-0.201 1.368-0.565 0.357-0.358 0.555-0.833 0.555-1.338 0-0.507-0.2-0.985-0.561-1.346C209.042 126.201 208.56 125.999 208.045 125.999L208.045 125.999zM208.045 129.298c-0.348 0-0.678-0.143-0.928-0.4 -0.255-0.263-0.395-0.621-0.395-0.99 0-0.373 0.14-0.731 0.393-0.992 0.249-0.256 0.58-0.397 0.931-0.397 0.353 0 0.684 0.141 0.932 0.397 0.253 0.261 0.393 0.62 0.393 0.992C209.37 128.668 208.776 129.298 208.045 129.298L208.045 129.298z"/>
			<path fill-rule="evenodd" clip-rule="evenodd" fill="#fff" d="M216.585 125.994h-2.338v0.658c0 0 0.74 0 0.852 0 0 0.129 0 3.171 0 3.171h0.697c0 0 0-3.042 0-3.171 0.112 0 0.856 0 0.856 0v-0.658H216.585L216.585 125.994z"/>
			<polygon fill-rule="evenodd" clip-rule="evenodd" fill="#fff" points="214.396,126.06 214.315,126.06 214.315,126.143     214.315,126.508 214.315,126.584 214.396,126.584 215.167,126.584 215.167,129.673 215.167,129.755 215.249,129.755     215.647,129.755 215.729,129.755 215.729,129.673 215.729,126.584 216.504,126.584 216.585,126.584 216.585,126.503     216.585,126.143 216.585,126.06 216.504,126.06 214.396,126.06   "/>
			<path fill-rule="evenodd" clip-rule="evenodd" fill="#fff" d="M225.053 125.994h-0.635c0 0 0 1.311 0 1.433 -0.118 0-1.391 0-1.509 0 0-0.122 0-1.433 0-1.433h-0.691v3.829h0.691c0 0 0-1.608 0-1.733 0.118 0 1.391 0 1.509 0 0 0.125 0 1.733 0 1.733l0.703-0.001v-3.828H225.053L225.053 125.994z"/>
			<polygon fill-rule="evenodd" clip-rule="evenodd" fill="#fff" points="224.485,126.06 224.485,127.493 222.842,127.493     222.842,126.06 222.284,126.06 222.284,129.755 222.842,129.755 222.842,128.022 224.485,128.022 224.485,129.755     225.053,129.755 225.053,126.06 224.485,126.06   "/>
			<path fill-rule="evenodd" clip-rule="evenodd" fill="#fff" d="M228.374 125.994h-2.062v3.829h2.129v-0.664c0 0-1.31 0-1.432 0 0-0.113 0-0.975 0-1.088 0.122 0 1.39 0 1.39 0v-0.664c0 0-1.268 0-1.39 0 0-0.105 0-0.645 0-0.75 0.122 0 1.432 0 1.432 0v-0.663H228.374L228.374 125.994z"/>
			<polygon fill-rule="evenodd" clip-rule="evenodd" fill="#fff" points="226.379,126.06 226.379,129.755 228.374,129.755     228.374,129.226 226.941,129.226 226.941,128.003 228.332,128.003 228.332,127.475 226.941,127.475 226.941,126.59     228.374,126.59 228.374,126.06 226.379,126.06   "/>
			<path fill-rule="evenodd" clip-rule="evenodd" fill="#fff" d="M217.518 127.569c0 0.603 0.242 1.191 0.665 1.613 0.43 0.43 1.028 0.677 1.642 0.677 0.464 0 0.932-0.154 1.319-0.434l0.019-0.013 0.028-0.02v-0.909l-0.193 0.192c-0.326 0.327-0.76 0.513-1.189 0.513 -0.349 0-0.773-0.188-1.031-0.456 -0.309-0.323-0.487-0.746-0.487-1.158 0-0.49 0.169-0.925 0.477-1.224 0.275-0.268 0.651-0.422 1.031-0.422 0.428 0 0.865 0.198 1.199 0.544 0 0 0.195 0.2 0.195 0.2v-0.914l-0.046-0.035c-0.392-0.292-0.824-0.434-1.32-0.434C218.488 125.289 217.518 126.248 217.518 127.569L217.518 127.569z"/>
			<path fill-rule="evenodd" clip-rule="evenodd" fill="#fff" d="M219.825 125.356c-1.302 0-2.239 0.925-2.239 2.213 0 0.577 0.229 1.15 0.644 1.566 0.421 0.42 1.005 0.656 1.595 0.656 0.45 0 0.904-0.15 1.28-0.421l0.02-0.013v-0.023 -0.579 -0.111l-0.079 0.079c-0.346 0.345-0.796 0.533-1.237 0.533 -0.358 0-0.798-0.185-1.079-0.477 -0.314-0.329-0.506-0.761-0.506-1.204 0-0.446 0.137-0.923 0.497-1.272 0.3-0.293 0.697-0.441 1.078-0.441 0.459 0 0.914 0.22 1.248 0.564l0.079 0.081v-0.112 -0.58 -0.023l-0.019-0.014C220.725 125.494 220.307 125.356 219.825 125.356L219.825 125.356z"/>
			<path fill-rule="evenodd" clip-rule="evenodd" fill="#fff" d="M200.664 125.293c-0.745 0.011-1.293 0.5-1.303 1.163 -0.01 0.713 0.544 1.058 0.962 1.255 0 0-0.002-0.001-0.005-0.002 0.012 0.005 0.056 0.025 0.28 0.127l0.049 0.023c0.346 0.163 0.597 0.281 0.597 0.661 0 0.004 0 0.008 0 0.012 -0.006 0.382-0.296 0.652-0.721 0.669 -0.393 0.017-0.887-0.183-1-0.351l-0.122-0.181 -0.004 0.859 0.039 0.029c0.098 0.072 0.396 0.293 1.081 0.302 0.391 0.006 0.757-0.138 1.031-0.403 0.266-0.258 0.416-0.608 0.421-0.986 0.01-0.732-0.502-1.067-1.057-1.32l-0.276-0.126c-0.32-0.15-0.565-0.286-0.562-0.557 0.002-0.141 0.05-0.251 0.15-0.35 0.107-0.103 0.249-0.161 0.423-0.171 0.488-0.03 0.914 0.209 1.006 0.346l0.124 0.183 -0.002-0.862 -0.028-0.02C201.463 125.388 201.099 125.287 200.664 125.293L200.664 125.293z"/>
			<path fill-rule="evenodd" clip-rule="evenodd" fill="#fff" d="M200.518 129.793c-0.693-0.01-0.97-0.237-1.054-0.298l0.003-0.607c0.134 0.2 0.657 0.396 1.058 0.38 0.45-0.018 0.778-0.309 0.785-0.735 0.006-0.452-0.313-0.582-0.685-0.758 0 0-0.273-0.124-0.274-0.124 -0.473-0.223-0.934-0.557-0.924-1.193 0.009-0.635 0.541-1.086 1.237-1.097 0.572-0.008 0.885 0.173 1.043 0.288l0.002 0.607c-0.108-0.159-0.563-0.405-1.066-0.375 -0.183 0.011-0.342 0.071-0.465 0.19 -0.113 0.11-0.168 0.236-0.171 0.396 -0.004 0.331 0.32 0.487 0.601 0.618l0.276 0.126c0.521 0.238 1.027 0.55 1.018 1.258 -0.005 0.359-0.147 0.693-0.401 0.939C201.24 129.663 200.891 129.799 200.518 129.793L200.518 129.793z"/>
		</g>
		<g id="hm-logo">
			<path fill-rule="evenodd" clip-rule="evenodd" fill="#fff" d="M455.313 404.578c1.032-0.517 1.563-0.438 1.575 0.079 0.014 0.676-0.093 1.576-0.158 2.227 -0.397 3.522-1.033 6.397-1.087 10.027 1.71-4.426 3.127-7.472 4.968-11.246 0.584-1.207 0.968-0.981 1.444-1.207 1.868-0.833 1.935-0.317 1.683 0.716 -0.901 3.749-3.205 15.605-3.563 17.42 -0.106 0.531-0.689 0.318-0.821 0.107 -0.688-0.916-1.43-0.93-1.351-1.551 0.424-3.021 1.934-10.664 2.317-12.466 -2.001 4.08-4.066 9.207-5.126 12.095 -0.227 0.609-0.637 0.569-0.888 0.119 -0.371-0.649-1.061-0.966-1.166-1.709 -0.371-2.372 0.411-6.901 0.516-9.776 -1.072 3.126-2.901 9.22-3.695 11.962 -0.331 1.14-1.43 0.941-1.139-0.146 1.218-4.624 3.828-12.771 4.954-15.698C454.041 404.83 454.744 404.869 455.313 404.578L455.313 404.578z"/>
			<path fill-rule="evenodd" clip-rule="evenodd" fill="#fff" d="M448.716 404.008c-0.357-0.079-1.392 0.478-2.027 0.57 -0.198 0.053-0.384 0.252-0.45 0.41 -1.007 2.318-1.908 4.518-2.675 6.505 -1.008 0.185-2.173 0.411-3.472 0.688 0.941-2.384 1.882-4.756 2.795-7.021 0.45-1.14-0.742-1.245-1.205-0.105 -0.596 1.471-1.723 4.237-2.968 7.458 -0.914 0.224-1.907 0.477-2.913 0.78 -0.743 0.199-0.77 0.397-0.451 0.849 0.186 0.238 0.529 0.212 0.702 0.398 0.437 0.449 0.702 0.992 1.483 1.072 -0.715 1.854-1.404 3.748-2.014 5.563 -0.396 1.152 0.729 1.391 1.153 0.172 0.688-1.947 1.416-3.921 2.172-5.921 0.622-0.133 2.12-0.451 3.511-0.769 -1.1 3.047-1.815 5.338-2.106 6.464 -0.053 0.213 0.053 0.318 0.092 0.424 0.358 0.53 0.729 0.557 1.207 1.233 0.118 0.185 0.557 0.277 0.715-0.173 1.02-3.1 2.054-5.987 3.034-8.584 0.41-0.106 1.151-0.277 1.602-0.939 0.795-1.194 1.021-0.955 1.232-1.313 0.238-0.463 0.066-0.874-0.781-0.782 0 0-0.317 0.026-0.927 0.093 0.953-2.425 1.801-4.477 2.385-6.055C449.007 404.485 449.034 404.088 448.716 404.008L448.716 404.008z"/>
			<path fill-rule="evenodd" clip-rule="evenodd" fill="#fff" d="M447.783 419.063c0.139-0.175 0.264-0.355 0.376-0.522 0.503-0.742 0.014-1.18-0.503-0.741 -0.074 0.067-0.15 0.142-0.227 0.218 -0.084-0.262-0.174-0.541-0.252-0.795 0.235-0.291 0.467-0.588 0.663-0.894 0.831-1.288-0.795-2.026-1.497-1.192 -0.37 0.438-0.276 0.874-0.172 1.258 0.031 0.116 0.079 0.281 0.139 0.481 -0.199 0.208-0.436 0.463-0.747 0.831 -0.809 0.927-0.584 2.122 0.264 2.384 0.513 0.158 0.995-0.071 1.413-0.44 0.02 0.052 0.039 0.103 0.058 0.149 0.226 0.557 0.928 0.385 0.65-0.291C447.903 419.395 447.847 419.24 447.783 419.063L447.783 419.063zM446.635 417.896c0.067 0.216 0.142 0.442 0.216 0.66 -0.092 0.077-0.187 0.155-0.28 0.211 -0.329 0.189-0.57-0.014-0.146-0.584C446.494 418.084 446.564 417.989 446.635 417.896L446.635 417.896zM446.898 416.272c-0.023-0.061-0.037-0.121-0.051-0.17 -0.237-0.888 0.779-0.65 0.265-0.066C447.04 416.12 446.974 416.201 446.898 416.272L446.898 416.272z"/>
		</g>
	</g>
	<!-- Image fallback -->
	<image xlink:href="images/mall/mall-ground.svg" src="images/mall/mall-ground.png"/>
</svg>