<svg xmlns="http://www.w3.org/2000/svg" xmlns:xlink="http://www.w3.org/1999/xlink" viewBox="0 0 800 600">
	<g id="ground">
		<rect id="background" fill="#eee" width="800" height="600"/>
		<g id="parking">
			<path fill="#fff" d="M287.5 340c0 5.5-3.182 13.182-7.071 17.071l-39.857 39.857C236.682 400.818 229 404 223.5 404h-142c-5.5 0-10-4.5-10-10v-88c0-5.5 4.5-10 10-10h124c5.5 0 10-4.05 10-9s4.5-9 10-9h34c5.5 0 13.182 3.182 17.071 7.071l3.857 3.857c3.889 3.889 7.071 11.571 7.071 17.071V340z"/>
			<path fill="none" stroke="#ddd" stroke-width="0.5" d="M287.5 340c0 5.5-3.182 13.182-7.071 17.071l-39.857 39.857C236.682 400.818 229 404 223.5 404h-142c-5.5 0-10-4.5-10-10v-88c0-5.5 4.5-10 10-10h124c5.5 0 10-4.05 10-9s4.5-9 10-9h34c5.5 0 13.182 3.182 17.071 7.071l3.857 3.857c3.889 3.889 7.071 11.571 7.071 17.071V340z"/>
		</g>
		<polygon id="shadow_1_" fill="#E4E4E4" points="759.13,106.909 712,106.909 712,139.234 754.63,139.197 759.13,145.106 759.13,219.769 638.08,219.769 633.58,213.86 677,145.147 677.999,106.909 637.08,106.909 632.58,101 754.63,0 759.13,0"/>
		<polygon id="building" fill="#F4F4F4" points="754.63,101 707.5,101 707.5,139.238 754.63,139.197 754.63,213.86 633.58,213.86 633.524,139.238 672.5,139.238 673.499,101 632.58,101 593.5,0 754.63,0"/>
		<polygon id="shadow_2_" fill="#E4E4E4" points="227.531,565.469 35.091,565.242 30.091,557.242 229.909,487.278 234.909,495.278"/>
		<polygon id="building_1_" fill="#F4F4F4" points="222.531,557.469 30.091,557.242 30.466,438.53 190.749,438.92 229.909,487.278"/>
		<polygon id="road" fill="#fff" stroke="#ddd" stroke-width="0.5" points="800,345.755 566.5,600 632.96,600 800,413"/>
		<polygon id="road_1_" fill="#fff" stroke="#ddd" stroke-width="0.5" points="402.5,600 214.833,404 198.5,404 385.5,600"/>
	</g>
	<g id="fund">
		<path id="shadow" display="none" fill="#E4E4E4" d="M425.5 498l54-54h36l36 36h63l27-27v-63l-90-90c0 0 0-54 0-99s-36-72-72-72h-9l-54-54h-63l-36 36h-126V93h-117v180h117v-18h99l36 36v72l-63 63 72 72H425.5z"/>
		<g id="roof">
			<path fill="#E4E4E4" d="M425.5 499l54-54h36l36 36h63l27-27v-63l-90-90c0 0 0-54 0-99s-36-72-72-72h-9l-54-54h-63l-36 36h-126V94h-117v180h117v-18h99l36 36v72l-63 63 72 72H425.5z"/>
			<path fill="#F4F4F4" d="M422.5 494l54-54h36l36 36h63l27-27v-63l-90-90c0 0 0-54 0-99s-36-72-72-72h-9l-54-54h-63l-36 36h-126V89h-117v180h117v-18h99l36 36v72l-63 63 72 72H422.5z"/>
		</g>
		<g>
			<path fill="#E4E4E4" d="M551.5 292c0 0 0-45 0-90s-36-72-72-72h-9l-54-54h-63l-36 36h-54v144h27l36 36H551.5z"/>
			<path fill="#fff" d="M548.5 287c0 0 0-45 0-90s-36-72-72-72h-9l-54-54h-63l-36 36h-54v144h27l36 36H548.5z"/>
		</g>
		<rect id="gal" x="356.544" y="151.68" transform="matrix(0.7071 0.7071 -0.7071 0.7071 241.6393 -216.3689)" fill="#F4F4F4" width="50.912" height="63.64"/>
		<polygon id="gal_shadow" fill="#E4E4E4" points="342.917,189.417 341.5,188 386.5,143 422.5,179 420.75,180.75 386,146.25  "/>
	</g>
	<g>
		<path fill="#888" d="M438.641 362.91V368h-2.69v-14.46h4.71c0.967 0 1.804 0.113 2.51 0.34 0.707 0.227 1.291 0.544 1.75 0.95 0.461 0.406 0.801 0.894 1.021 1.46s0.33 1.187 0.33 1.86c0 0.699-0.116 1.342-0.351 1.925 -0.232 0.583-0.583 1.085-1.049 1.505 -0.467 0.42-1.051 0.747-1.75 0.979 -0.701 0.233-1.521 0.351-2.461 0.351H438.641zM438.641 360.81h2.02c0.494 0 0.924-0.062 1.29-0.185s0.671-0.3 0.91-0.53c0.24-0.229 0.42-0.51 0.54-0.84s0.18-0.698 0.18-1.104c0-0.387-0.06-0.737-0.18-1.051 -0.12-0.313-0.3-0.58-0.54-0.8 -0.239-0.22-0.544-0.388-0.91-0.505 -0.366-0.116-0.796-0.175-1.29-0.175h-2.02V360.81z"/>
		<path fill="#888" d="M453.15 353.38c0.666 0 1.268 0.095 1.805 0.285s0.995 0.453 1.375 0.79c0.381 0.337 0.672 0.731 0.875 1.185 0.203 0.454 0.305 0.943 0.305 1.471 0 0.46-0.051 0.864-0.154 1.215 -0.104 0.35-0.254 0.655-0.45 0.915s-0.437 0.479-0.72 0.66c-0.283 0.18-0.605 0.33-0.965 0.449 0.866 0.273 1.514 0.69 1.939 1.25 0.427 0.561 0.641 1.264 0.641 2.11 0 0.72-0.134 1.356-0.4 1.91s-0.627 1.019-1.08 1.395c-0.453 0.377-0.979 0.662-1.574 0.855 -0.598 0.193-1.229 0.29-1.896 0.29 -0.728 0-1.36-0.084-1.9-0.25 -0.54-0.167-1.01-0.413-1.409-0.74 -0.4-0.326-0.74-0.727-1.021-1.2 -0.28-0.473-0.521-1.02-0.72-1.64l1.09-0.45c0.187-0.08 0.377-0.12 0.57-0.12 0.173 0 0.328 0.037 0.465 0.11s0.241 0.18 0.314 0.32c0.12 0.233 0.252 0.463 0.395 0.689 0.145 0.227 0.315 0.429 0.516 0.605s0.436 0.319 0.705 0.43 0.592 0.165 0.965 0.165c0.42 0 0.787-0.068 1.1-0.205 0.314-0.137 0.576-0.315 0.785-0.535 0.211-0.22 0.367-0.465 0.471-0.734 0.104-0.271 0.154-0.542 0.154-0.815 0-0.347-0.037-0.661-0.109-0.945 -0.074-0.283-0.227-0.524-0.461-0.725 -0.232-0.2-0.568-0.356-1.004-0.47 -0.438-0.113-1.021-0.17-1.756-0.17v-1.771c0.607 0 1.11-0.054 1.51-0.16 0.4-0.106 0.719-0.255 0.955-0.444 0.237-0.19 0.402-0.419 0.496-0.686 0.093-0.267 0.14-0.56 0.14-0.88 0-0.687-0.187-1.205-0.56-1.555 -0.374-0.351-0.885-0.525-1.531-0.525 -0.586 0-1.072 0.155-1.459 0.465s-0.657 0.707-0.811 1.193c-0.08 0.253-0.189 0.435-0.33 0.544 -0.14 0.11-0.323 0.165-0.55 0.165 -0.106 0-0.22-0.01-0.34-0.029l-1.3-0.227c0.1-0.693 0.293-1.302 0.58-1.825 0.286-0.523 0.645-0.961 1.074-1.311 0.43-0.351 0.924-0.613 1.48-0.79S452.51 353.38 453.15 353.38z"/>
	</g>
	<g id="shops">
		<g id="health">
			<polygon points="512.5,251 503.5,242 467.5,278 467.5,287 548.5,287 548.5,251"/>
		</g>
		<g id="misc">
			<polygon points="395.5,89 395.5,116 440.5,116 440.5,98 431.5,89"/>
			<path d="M548.5 251c0 0 0-9 0-54s-36-72-72-72h-9l-27-27v81l36 36v54l27-27 9 9H548.5z"/>
			<a xlink:href="#amc" xlink:title="AMC Theatres"><polygon fill="#B06489" stroke="#fff" stroke-width="0.5" points="368.5,71 368.5,89 431.5,89 413.5,71"/></a>
			<a xlink:href="#att" xlink:title="At&amp;t"><polygon points="350.5,71 314.5,107 314.5,170 332.5,170 368.5,134 368.5,71"/></a>
		</g>
		<g id="other">
			<polygon fill="#bbb" stroke="#fff" stroke-width="0.5" points="386.5,287 386.5,251 404.5,269 404.5,287"/>
			<rect x="404.5" y="269" fill="#bbb" stroke="#fff" stroke-width="0.5" width="27" height="18"/>
		</g>
		<g id="clothing">
			<polygon points="422.5,161 395.5,134 395.5,116 440.5,116 440.5,161"/>
			<a xlink:href="#pullbear" xlink:title="Pull &amp; Bear"><rect x="260.5" y="107" width="54" height="81"/></a>
			<a xlink:href="#gap" xlink:title="GAP"><polygon points="350.5,215 341.5,215 296.5,260 323.5,287 386.5,287 386.5,251"/></a>
		</g>
		<g id="department">
			<polygon points="323.5,188 260.5,188 260.5,251 287.5,251 296.5,260 341.5,215 341.5,206"/>
		</g>
	</g>
	<g id="signs">
		<g id="esc-down">
			<path id="path2501_1_" fill="#454545" d="M451.231 261.439c-0.575 0-0.897 0.297-0.897 0.904v6.255c0 0.567 0.29 0.864 0.864 0.864h6.281c0.573 0 0.864-0.282 0.864-0.864v-6.255c0-0.592-0.291-0.904-0.883-0.904C457.461 261.439 451.23 261.438 451.231 261.439z"/>
			<g id="g3999">
				<g id="g4001">
					<g id="g4003">
						<path id="path4005" fill="#fff" d="M453.852 263.549c0.27 0 0.487-0.218 0.487-0.488 0-0.269-0.218-0.487-0.487-0.487s-0.488 0.218-0.488 0.487C453.363 263.331 453.582 263.549 453.852 263.549z"/>
						<path id="path4007" fill="#fff" d="M453.852 263.061"/>
					</g>
					<path id="path4009" fill="#fff" d="M454.334 264.427v-0.307c0-0.655-0.965-0.648-0.965 0v1.253h0.001l-0.911 0.912c-0.086 0.086-0.097 0.089-0.267 0.089 0 0-0.557 0-0.557 0 -0.562 0-0.897 0.505-0.897 0.932s0.336 0.968 0.947 0.968c0 0 0.759 0 0.993 0s0.519-0.089 0.753-0.311l2.908-2.899c0.063-0.055 0.098-0.073 0.204-0.073 0 0 0.4 0 0.718 0 0.346 0 0.835-0.392 0.835-0.957 0-0.559-0.493-0.931-0.863-0.933H456.1c-0.234 0-0.536 0.096-0.716 0.276L454.334 264.427 454.334 264.427z"/>
				</g>
				<path id="path4011" fill="#fff" d="M455.145 268.304h1.02c0.279 0 0.291-0.431 0-0.431h-0.522l0.993-0.993c0.22-0.22-0.092-0.539-0.325-0.305l-0.979 0.98v-0.517c0.002-0.28-0.434-0.291-0.434 0v1.012C454.897 268.202 454.998 268.304 455.145 268.304z"/>
			</g>
			<path id="path4013" fill="#454545" d="M456.169 263.585h1.02c0.248 0 0.415 0.277 0.415 0.443s-0.118 0.474-0.422 0.474h-0.613c-0.259 0-0.375 0.037-0.523 0.186l-2.931 2.931c-0.119 0.118-0.27 0.166-0.462 0.166h-0.967c-0.248 0-0.467-0.21-0.467-0.486s0.209-0.43 0.424-0.43h0.663c0.192 0 0.321-0.055 0.431-0.166l2.979-2.98C455.839 263.601 455.961 263.585 456.169 263.585z"/>
		</g>
		<g id="esc-up">
			<path id="path2501_2_" fill="#454545" d="M441.813 261.439c-0.575 0-0.897 0.297-0.897 0.904v6.255c0 0.567 0.29 0.864 0.864 0.864h6.281c0.573 0 0.864-0.282 0.864-0.864v-6.255c0-0.592-0.291-0.904-0.883-0.904C448.043 261.439 441.813 261.438 441.813 261.439z"/>
			<g id="g3997_1_">
				<g id="g3999_1_">
					<g id="g4001_1_">
						<g id="g4003_1_">
							<path id="path4005_1_" fill="#fff" d="M444.435 263.549c0.27 0 0.487-0.218 0.487-0.488 0-0.269-0.218-0.487-0.487-0.487s-0.488 0.218-0.488 0.487C443.946 263.331 444.165 263.549 444.435 263.549z"/>
							<path id="path4007_1_" fill="#fff" d="M444.435 263.061"/>
						</g>
						<path id="path4009_1_" fill="#fff" d="M444.917 264.427v-0.307c0-0.655-0.965-0.648-0.965 0v1.253h0.001l-0.911 0.912c-0.086 0.086-0.097 0.089-0.267 0.089 0 0-0.557 0-0.557 0 -0.562 0-0.897 0.505-0.897 0.932s0.336 0.968 0.947 0.968c0 0 0.759 0 0.993 0s0.519-0.089 0.753-0.311l2.908-2.899c0.063-0.055 0.098-0.073 0.204-0.073 0 0 0.4 0 0.718 0 0.346 0 0.835-0.392 0.835-0.957 0-0.559-0.493-0.931-0.863-0.933h-1.134c-0.234 0-0.536 0.096-0.716 0.276L444.917 264.427 444.917 264.427z"/>
					</g>
					<path id="path4011_1_" fill="#fff" d="M447.044 266.493h-1.02c-0.279 0-0.291 0.431 0 0.431h0.522l-0.993 0.993c-0.22 0.22 0.092 0.539 0.325 0.305l0.979-0.98v0.517c-0.002 0.28 0.434 0.291 0.434 0v-1.012C447.291 266.595 447.19 266.493 447.044 266.493z"/>
				</g>
				<path id="path4013_1_" fill="#454545" d="M446.752 263.585h1.02c0.248 0 0.415 0.277 0.415 0.443s-0.118 0.474-0.422 0.474h-0.613c-0.259 0-0.375 0.037-0.523 0.186l-2.931 2.931c-0.119 0.118-0.27 0.166-0.462 0.166h-0.967c-0.248 0-0.467-0.21-0.467-0.486s0.209-0.43 0.424-0.43h0.663c0.192 0 0.321-0.055 0.431-0.166l2.979-2.98C446.422 263.601 446.544 263.585 446.752 263.585z"/>
			</g>
		</g>
		<g id="toilet-women_1_" transform="translate(-8.29e-2,-0.5853944)">
			<path id="path2501_3_" fill="#454545" d="M392.091 274.553c-0.575 0-0.897 0.297-0.897 0.904v6.255c0 0.567 0.29 0.864 0.864 0.864h6.281c0.573 0 0.864-0.282 0.864-0.864v-6.255c0-0.592-0.291-0.904-0.883-0.904C398.32 274.553 392.09 274.551 392.091 274.553z"/>
			<g id="g2503_1_">
				<path id="path2507_1_" fill="#fff" d="M395.202 276.779c0.222 0 0.401-0.179 0.401-0.401s-0.18-0.401-0.401-0.401c-0.22 0-0.4 0.179-0.4 0.401S394.982 276.779 395.202 276.779z"/>
				<path id="path2511_1_" fill="#fff" d="M395.142 279.324v1.389c0 0.252-0.378 0.252-0.378 0v-1.379h-0.506l0.541-1.883h-0.083l-0.316 1.062c-0.075 0.232-0.394 0.137-0.32-0.111l0.351-1.154c0.037-0.131 0.204-0.365 0.492-0.365h0.265l0 0h0.286c0.287 0 0.453 0.235 0.496 0.365l0.352 1.153c0.069 0.248-0.246 0.35-0.321 0.108l-0.315-1.058h-0.091l0.547 1.883h-0.509v1.381c0 0.25-0.376 0.25-0.376 0v-1.391H395.142z"/>
			</g>
		</g>
		<g id="toilet-men">
			<path id="path2449" fill="#454545" d="M414.393 273.864c-0.571 0-0.893 0.295-0.893 0.899v6.222c0 0.565 0.289 0.86 0.859 0.86h6.249c0.57 0 0.86-0.281 0.86-0.86v-6.222c0-0.589-0.29-0.899-0.878-0.899C420.591 273.864 414.391 273.862 414.393 273.864z"/>
			<path id="path2455" fill="#fff" d="M417.462 276.042c0.235 0 0.427-0.191 0.427-0.427 0-0.235-0.191-0.427-0.427-0.427s-0.427 0.191-0.427 0.427C417.035 275.851 417.227 276.042 417.462 276.042z"/>
			<path id="path2459" fill="#fff" d="M417.005 276.136c-0.302 0-0.545 0.247-0.545 0.554v1.311c0 0.255 0.373 0.255 0.373 0v-1.199h0.089v3.282c0 0.341 0.496 0.331 0.496 0v-1.905h0.085v1.905c0 0.331 0.5 0.341 0.5 0v-3.282h0.085v1.199c0 0.257 0.372 0.257 0.371 0v-1.303c0-0.284-0.22-0.561-0.553-0.561L417.005 276.136z"/>
		</g>
	</g>
	<g id="logos">
		<g id="atnt">
			<path fill="#fff" d="M357.099 124.989l-1.141-1.178c-0.034-0.027-0.048-0.084-0.017-0.129l0.871-1.465c0.02-0.04 0.021-0.069 0.021-0.083 0-0.092-0.075-0.167-0.167-0.167h-0.638c-0.064 0-0.12 0.033-0.152 0.087l-0.551 0.953c-0.026 0.036-0.081 0.046-0.121 0.019l-0.891-0.917 -0.02-0.055 0.029-0.063 0.01-0.01c0.503-0.293 1.078-0.723 1.078-1.483 0-0.871-0.625-1.456-1.556-1.456 -0.913 0-1.604 0.61-1.604 1.521 0 0.401 0.167 0.801 0.512 1.221l0.009 0.01 0.017 0.062c-0.003 0.024-0.015 0.044-0.033 0.059 -0.759 0.431-1.142 1.002-1.142 1.701 0 1.185 0.992 1.805 1.972 1.805 0.672 0 1.197-0.258 1.702-0.839l0.009-0.013c0.03-0.029 0.086-0.029 0.121 0.005l0.612 0.634 0.016 0.017c0.034 0.032 0.076 0.049 0.121 0.049l0.751 0.001h0.059c0.094 0 0.17-0.077 0.17-0.168C357.146 125.063 357.129 125.021 357.099 124.989M353.87 119.922c0.382 0 0.588 0.264 0.588 0.586 0 0.377-0.336 0.595-0.741 0.822l-0.021 0.009c-0.032 0.018-0.074 0.011-0.099-0.016l-0.009-0.01c-0.176-0.192-0.384-0.499-0.384-0.721C353.203 120.216 353.473 119.922 353.87 119.922M354.687 123.945l-0.003 0.004c-0.294 0.351-0.618 0.585-1.088 0.585 -0.559 0-0.995-0.402-0.995-0.913 0-0.453 0.194-0.724 0.768-1.07 0.04-0.023 0.084-0.019 0.112 0.01l1.198 1.253c0.021 0.021 0.031 0.042 0.032 0.065v0.002L354.687 123.945z"/>
			<path fill="#fff" d="M350.858 124.522l-0.036 0.001c-0.916 0-1.38-0.486-1.38-1.442v-2.819c0-0.049 0.04-0.089 0.09-0.089h1.435c0.095 0 0.171-0.077 0.171-0.17v-0.625c0-0.095-0.077-0.171-0.171-0.171h-1.43c-0.052 0-0.094-0.042-0.094-0.094v-1.295c0.003-0.091-0.07-0.171-0.164-0.176h-0.02l-0.735 0.057c-0.09 0-0.167 0.077-0.167 0.17v1.248c0 0.05-0.041 0.089-0.09 0.089l-0.9-0.001c-0.094 0-0.171 0.077-0.171 0.171l-0.002 0.629c0.002 0.047 0.021 0.09 0.054 0.12 0.034 0.032 0.078 0.049 0.124 0.047h0.897c0.049 0 0.09 0.041 0.09 0.089l0 3.008c0 1.614 1.215 2.189 2.281 2.189 0 0 0.126 0.002 0.223-0.007 0.097-0.009 0.169-0.076 0.169-0.169v-0.591C351.03 124.598 350.953 124.522 350.858 124.522"/>
			<path fill="#fff" d="M346.75 125.031c-0.058-0.164-0.074-0.344-0.079-0.423 -0.003-0.059-0.005-0.296-0.005-0.296v-2.978c0-1.573-1.113-2.133-2.155-2.133 -0.825 0-1.577 0.216-2.061 0.539 -0.04 0.027-0.066 0.067-0.075 0.108 -0.009 0.043 0 0.088 0.024 0.125l0.383 0.519c0.055 0.074 0.16 0.091 0.235 0.037l0.051-0.034c0.378-0.236 0.825-0.371 1.28-0.371 1.286 0 1.248 1.006 1.248 1.137 0 0.066-0.04 0.083-0.088 0.082l-0.199-0.004c-0.997-0.036-3.526 0.303-3.526 2.309 0 1.178 0.982 1.779 1.898 1.779 0.887 0 1.601-0.353 1.957-0.784l0.004-0.005 0.019-0.009 0.022 0.023c0 0.055 0 0.18 0.012 0.288 0.008 0.098 0.021 0.171 0.037 0.224 0.015 0.047 0.045 0.094 0.09 0.117 0.022 0.011 0.046 0.018 0.072 0.018l0.712 0.001c0.093 0 0.168-0.076 0.168-0.165C346.773 125.107 346.75 125.031 346.75 125.031M345.642 122.699c-0.145 1.028-0.651 1.621-1.585 1.774 -0.658 0.108-1.255-0.163-1.287-0.867 -0.036-0.774 0.864-1.424 2.524-1.353 0 0 0.122 0.007 0.204 0.017 0.073 0.007 0.118 0.031 0.146 0.074C345.67 122.386 345.675 122.468 345.642 122.699"/>
			<path fill="#fff" d="M360.521 124.522l-0.035 0.001c-0.916 0-1.38-0.486-1.38-1.442v-2.819c0-0.049 0.04-0.089 0.089-0.089h1.435c0.095 0 0.172-0.077 0.172-0.17v-0.625c0-0.095-0.077-0.171-0.172-0.171h-1.43c-0.053 0-0.094-0.042-0.094-0.094v-1.295c0.004-0.091-0.069-0.171-0.164-0.176h-0.02l-0.734 0.057c-0.091 0-0.168 0.077-0.168 0.17v1.248c0 0.05-0.041 0.089-0.089 0.089l-0.901-0.001c-0.094 0-0.171 0.077-0.171 0.171l-0.001 0.629c0.001 0.047 0.02 0.09 0.053 0.12 0.033 0.032 0.076 0.049 0.124 0.047h0.897c0.049 0 0.09 0.041 0.09 0.089v3.008c0 1.614 1.215 2.189 2.281 2.189 0 0 0.126 0.002 0.223-0.007 0.096-0.009 0.168-0.076 0.168-0.169v-0.591C360.693 124.598 360.616 124.522 360.521 124.522"/>
			<path fill="#fff" d="M321.035 119.377c0.144-0.517 0.333-1.013 0.562-1.486 -0.103 0.243-0.157 0.513-0.157 0.899 0 2.199 4.752 4.368 10.58 2.777 2.269-0.622 5.664-1.81 5.664-3.634 0-0.091 0.039-0.299-0.263-0.823 0.377 0.615 0.681 1.275 0.905 1.977 0.107 0.366 0.092 0.625 0.092 0.722 0 0.448-0.559 3.185-6.024 3.683 -0.474 0.042-3.946 0.097-6.966-0.667 -2.009-0.508-4.025-1.491-4.407-2.855C320.961 119.757 320.989 119.56 321.035 119.377M329.534 128.103c-1.139 0.126-7.754 0.426-8.717-4.826 0.135 0.839 0.386 1.636 0.736 2.38 0.415 0.749 1.447 1.775 2.94 2.393 7.759 3.205 12.532-0.61 13.451-2.506 0.37-0.816 0.622-1.695 0.736-2.619C338.57 123.627 337.854 127.179 329.534 128.103M329.337 129.92c-1.374 0-4.364-0.222-6.31-2.05 1.651 1.826 4.041 2.974 6.696 2.974 3.456 0 6.46-1.943 7.975-4.799C337.228 126.864 335.152 129.92 329.337 129.92M324.011 125.51c1.952 0.798 5.05 1.405 6.81 1.342 6.348-0.228 7.754-3.433 7.902-4.368 0.015-0.22 0.023-0.441 0.023-0.663 0-0.738-0.086-1.454-0.256-2.142 0.069 0.298 0.087 0.587 0.087 0.734 0 0.309 0.06 3.082-6.273 4.494 -3.794 0.846-5.397 0.819-8.008-0.002 -2.283-0.722-3.532-2.395-3.565-3.831 -0.021 0.248-0.03 0.496-0.03 0.748 0 0.206 0.005 0.407 0.021 0.61C320.886 123.623 322.44 124.87 324.011 125.51M326.96 119.469c0.951 0.121 3.467 0.464 5.415 0.304 3.934-0.325 4.808-1.698 4.808-2.59 0-0.245-0.132-0.601-0.266-0.809 -0.35-0.462-0.745-0.89-1.174-1.275 0.111 0.121 0.148 0.275 0.153 0.368 0.036 0.607-0.958 1.424-2.967 2.091 -1.253 0.416-2.913 0.814-4.968 0.814 -3.468 0-4.663-1.314-4.663-2.137 0-0.087-0.019-0.792 0.787-1.458 -0.736 0.587-1.376 1.289-1.895 2.078 -0.058 0.093-0.089 0.201-0.089 0.329C322.1 118.021 324.154 119.112 326.96 119.469M324.376 114.998c0.064 0.902 2.459 1.613 5.349 1.541 2.89-0.076 5.103-0.906 5.103-1.811 0-0.258-0.194-0.492-0.538-0.691 -1.339-0.789-2.9-1.241-4.567-1.241 -1.742 0-3.365 0.494-4.744 1.347C324.57 114.403 324.356 114.698 324.376 114.998"/>
		</g>
		<g id="amc">
			<polygon fill-rule="evenodd" clip-rule="evenodd" fill="#fff" points="467.08,182.778 467.08,187.809 465.83,187.809     465.83,182.778 463.99,182.778 463.99,181.737 468.854,181.737 468.854,182.778 467.08,182.778   "/>
			<polygon fill-rule="evenodd" clip-rule="evenodd" fill="#fff" points="476.33,187.809 476.33,185.06 473.923,185.06     473.923,187.809 472.674,187.809 472.674,181.737 473.923,181.737 473.923,184.019 476.33,184.019 476.33,181.737     477.578,181.737 477.578,187.809 476.33,187.809   "/>
			<polygon fill-rule="evenodd" clip-rule="evenodd" fill="#fff" points="481.926,187.809 481.926,181.737 486.322,181.737     486.322,182.778 483.175,182.778 483.175,184.161 486.081,184.161 486.081,185.202 483.175,185.202 483.175,186.767     486.464,186.767 486.464,187.809 481.926,187.809   "/>
			<path fill-rule="evenodd" clip-rule="evenodd" fill="#fff" d="M494.549 187.809l-0.416-1.216h-2.248l-0.424 1.216h-1.275l2.115-6.072h1.439l2.083 6.072H494.549L494.549 187.809zM493.025 183.194l-0.75 2.357h1.558L493.025 183.194 493.025 183.194z"/>
			<polygon fill-rule="evenodd" clip-rule="evenodd" fill="#fff" points="502.336,182.778 502.336,187.809 501.086,187.809     501.086,182.778 499.245,182.778 499.245,181.737 504.109,181.737 504.109,182.778 502.336,182.778   "/>
			<path fill-rule="evenodd" clip-rule="evenodd" fill="#fff" d="M511.66 187.809c-0.101-0.184-0.15-0.367-0.166-0.566 -0.017-0.3 0-0.783 0-1.225 0-0.408-0.317-0.607-0.75-0.607h-1.466v2.399h-1.25v-6.072h3.374c0.606 0 1.216 0.308 1.398 0.966 0.074 0.267 0.208 0.699 0.059 1.224s-0.417 0.716-0.823 0.958c0.207 0.141 0.605 0.291 0.674 0.84 0.032 0.25 0.058 1.049 0.058 1.357 0.008 0.341 0.101 0.416 0.233 0.5v0.226H511.66L511.66 187.809zM510.968 182.778h-1.689v1.591h1.707c0.292 0 0.817-0.308 0.741-0.907C511.727 183.028 511.526 182.778 510.968 182.778L510.968 182.778z"/>
			<polygon fill-rule="evenodd" clip-rule="evenodd" fill="#fff" points="517.18,187.809 517.18,181.737 521.577,181.737     521.577,182.778 518.43,182.778 518.43,184.161 521.337,184.161 521.337,185.202 518.43,185.202 518.43,186.767 521.72,186.767     521.72,187.809 517.18,187.809   "/>
			<path fill-rule="evenodd" clip-rule="evenodd" fill="#fff" d="M529.122 183.586c0.017-0.492-0.392-0.941-1.25-0.958 -0.607-0.009-1.057 0.199-1.1 0.699 -0.033 0.417 0.107 0.5 0.384 0.608 0.143 0.151 1.291 0.333 1.524 0.375 0.332 0.059 1.05 0.208 1.433 0.6 0.7 0.732 0.375 2.173-0.383 2.665 -0.518 0.333-1.226 0.416-1.899 0.424 -0.308 0.009-1.04-0.099-1.491-0.424 -0.542-0.392-0.808-0.991-0.85-1.566h1.217c0 0.159 0.05 0.408 0.258 0.633 0.275 0.283 0.724 0.366 1.141 0.35 0.417-0.009 0.808-0.133 0.967-0.283 0.266-0.25 0.325-0.726 0.024-1.025 -0.399-0.417-1.599-0.417-2.382-0.683 -0.658-0.225-1.199-0.7-1.1-1.683 0.102-0.965 0.8-1.682 2.283-1.682 0.324 0 1.457 0.025 2.048 0.775 0.316 0.408 0.4 0.974 0.35 1.175H529.122L529.122 183.586z"/>
			<path fill-rule="evenodd" clip-rule="evenodd" fill="#fff" d="M499.154 165.314c3.021-2.557 6.188-2.506 8.883-1.178 2.505 1.321 3.402 3.221 3.441 5.993l-0.001 6.805c0 0-0.025 1.92-1.993 1.92 -1.871 0-1.959-1.908-1.959-1.908l-0.026-6.723c0 0-0.113-3.123-3.235-3.123 -3.141 0-3.391 3.107-3.391 3.107v6.617c0 0 0 2.004-1.987 2.004 -1.94 0-1.981-2.004-1.981-2.004l-0.002-6.598c0 0-0.058-3.126-3.377-3.126 -3.301 0-3.217 3.172-3.217 3.172v6.786c0 0-0.23 1.786-1.973 1.786 -1.805 0-1.986-1.802-1.986-1.802l-0.014-6.849c0-2.524 0.488-5.029 4.08-6.448 1.632-0.645 3.546-0.631 5.265-0.24 1.145 0.416 2.133 0.976 3.097 1.809l0.182 0.16L499.154 165.314 499.154 165.314z"/>
			<path fill-rule="evenodd" clip-rule="evenodd" fill="#fff" d="M479.992 176.893c0-1.968-1.952-1.975-1.952-1.975h-7.033c-0.417 0-0.466-0.318-0.365-0.69 0.858-2.133 2.764-4.524 4.803-5.566 1.685-0.862 3.617-1.756 5.621-1.626 0.418 0.033 0.418 0.228 0.42 0.885v8.877c0 0 0.101 2.015 2.052 2.015 2.01 0 1.85-1.949 1.85-1.949l-0.008-11.146c0.027-0.677-0.097-1.328-0.5-1.849 -0.3-0.273-0.704-0.56-1.159-0.625 -2.395-0.195-4.693 0.021-6.896 0.664 -4.086 1.191-7.991 4.51-9.994 8.459 -0.685 1.345-1.315 3.11-1.342 4.737 0.026 0.781 0.353 1.692 1.243 1.692l11.343 0.058C478.073 178.854 479.992 178.926 479.992 176.893L479.992 176.893z"/>
			<path fill-rule="evenodd" clip-rule="evenodd" fill="#fff" d="M526.895 172.061c1.984 0.207 1.736 2.07 1.736 2.07 -1.072 3.371-4.229 5.431-7.954 5.431 -4.609 0-8.346-3.736-8.346-8.346 0-4.608 3.736-8.345 8.346-8.345 3.742 0 6.908 1.826 7.968 5.22 0 0 0.505 2.042-1.691 2.296 -1.626 0-1.877-1.326-1.877-1.326 -0.628-1.82-2.356-2.491-4.392-2.491 -2.565 0-4.646 2.08-4.646 4.645 0 2.566 2.08 4.646 4.646 4.646 2.009 0 3.721-0.893 4.368-2.678C525.053 173.183 525.452 172.029 526.895 172.061L526.895 172.061z"/>
		</g>
	</g>
	<!-- Image fallback -->
	<image xlink:href="images/mall/mall-first.svg" src="images/mall/mall-first.png"/>
</svg>