<svg xmlns="http://www.w3.org/2000/svg" xmlns:xlink="http://www.w3.org/1999/xlink" viewBox="0 0 800 600">
	<rect id="background" fill="#596267" width="800" height="600"/>
	<g id="fund">
		<path id="shadow" display="none" fill="#E4E4E4" d="M425.5,498l54-54h36l36,36h63l27-27v-63l-90-90c0,0,0-54,0-99s-36-72-72-72h-9
			l-54-54h-63l-36,36h-126V93h-117v180h117v-18h99l36,36v72l-63,63l72,72H425.5z"/>
		<polygon fill="#454545" points="353.5,481 614.5,481 641.5,454 641.5,391 551.5,301 551.5,211 416.5,76 353.5,76 317.5,112 
				290.5,139 290.5,256 326.5,292 326.5,364 299.5,391 299.5,427"/>
		<polygon fill="#eee" points="350.5,476 611.5,476 638.5,449 638.5,386 548.5,296 548.5,206 413.5,71 350.5,71 314.5,107 
				287.5,134 287.5,251 323.5,287 323.5,359 296.5,386 296.5,422"/>
		<polygon fill="#fff" points="548.5,287 548.5,206 467.5,125 413.5,71 350.5,71 287.5,134 287.5,251 323.5,287"/>
		<g>
			<path fill="#888" d="M447.641,380.91V386h-2.69v-14.46h4.71c0.967,0,1.804,0.113,2.51,0.34c0.707,0.227,1.291,0.544,1.75,0.95
				c0.461,0.406,0.801,0.894,1.021,1.46s0.33,1.187,0.33,1.86c0,0.699-0.116,1.342-0.351,1.925c-0.232,0.583-0.583,1.085-1.049,1.505
				c-0.467,0.42-1.051,0.747-1.75,0.979c-0.701,0.233-1.521,0.351-2.461,0.351H447.641z M447.641,378.81h2.02
				c0.494,0,0.924-0.062,1.29-0.185s0.671-0.3,0.91-0.53c0.24-0.229,0.42-0.51,0.54-0.84s0.18-0.698,0.18-1.104
				c0-0.387-0.06-0.737-0.18-1.051c-0.12-0.313-0.3-0.58-0.54-0.8c-0.239-0.22-0.544-0.388-0.91-0.505
				c-0.366-0.116-0.796-0.175-1.29-0.175h-2.02V378.81z"/>
			<path fill="#888" d="M461.92,371.38c0.667,0,1.277,0.099,1.83,0.295c0.554,0.197,1.027,0.476,1.42,0.835
				c0.394,0.36,0.701,0.794,0.92,1.3c0.221,0.507,0.33,1.07,0.33,1.69c0,0.533-0.078,1.026-0.234,1.48
				c-0.156,0.453-0.367,0.887-0.631,1.3c-0.263,0.413-0.57,0.813-0.924,1.2s-0.725,0.779-1.11,1.18l-3.261,3.33
				c0.32-0.094,0.634-0.165,0.94-0.215c0.307-0.051,0.601-0.075,0.88-0.075h3.711c0.266,0,0.478,0.075,0.635,0.225
				c0.156,0.15,0.234,0.349,0.234,0.595V386h-9.92v-0.82c0-0.166,0.035-0.34,0.105-0.52s0.182-0.347,0.334-0.5l4.391-4.4
				c0.367-0.373,0.695-0.729,0.984-1.069c0.291-0.341,0.534-0.677,0.73-1.011c0.197-0.333,0.347-0.671,0.45-1.015
				s0.155-0.705,0.155-1.085c0-0.347-0.051-0.651-0.15-0.915s-0.243-0.485-0.43-0.665c-0.188-0.18-0.408-0.315-0.665-0.405
				s-0.545-0.135-0.865-0.135c-0.593,0-1.081,0.15-1.465,0.45s-0.651,0.703-0.806,1.21c-0.072,0.253-0.183,0.435-0.33,0.545
				c-0.146,0.11-0.332,0.165-0.559,0.165c-0.101,0-0.211-0.01-0.33-0.03l-1.301-0.229c0.1-0.693,0.293-1.302,0.58-1.825
				s0.645-0.96,1.075-1.311c0.43-0.35,0.923-0.613,1.479-0.79C460.682,371.469,461.28,371.38,461.92,371.38z"/>
		</g>
		<polygon fill="#bbb" stroke="#fff" stroke-width="0.5" points="350.5,71 287.5,134 287.5,152 494.5,152 413.5,71"/>
	</g>
	<g id="shops">
		<g id="misc">
			<a xlink:href="#petco" xlink:title="Petco"><polygon points="377.5,152 377.5,197 386.5,206 548.5,206 494.5,152"/></a>
			<polygon points="458.5,206 485.5,233 485.5,287 548.5,287 548.5,206"/>
		</g>
		<g id="clothing">
			<polygon points="350.5,215 350.5,152 287.5,152 287.5,251 323.5,287 413.5,287 413.5,251 386.5,251"/>
		</g>
	</g>
	<g id="signs">
		<g class="escalator-down">
			<path fill="#454545" d="M451.231,261.439c-0.575,0-0.897,0.297-0.897,0.904v6.255 c0,0.567,0.29,0.864,0.864,0.864h6.281c0.573,0,0.864-0.282,0.864-0.864v-6.255c0-0.592-0.291-0.904-0.883-0.904 C457.461,261.439,451.23,261.438,451.231,261.439z"/>
			<path fill="#fff" d="M453.852,263.549c0.27,0,0.487-0.218,0.487-0.488c0-0.269-0.218-0.487-0.487-0.487 s-0.488,0.218-0.488,0.487C453.363,263.331,453.582,263.549,453.852,263.549z"/>
			<path fill="#fff" d="M453.852,263.061"/>
			<path fill="#fff" d="M454.334,264.427v-0.307c0-0.655-0.965-0.648-0.965,0v1.253h0.001l-0.911,0.912 c-0.086,0.086-0.097,0.089-0.267,0.089c0,0-0.557,0-0.557,0c-0.562,0-0.897,0.505-0.897,0.932s0.336,0.968,0.947,0.968 c0,0,0.759,0,0.993,0s0.519-0.089,0.753-0.311l2.908-2.899c0.063-0.055,0.098-0.073,0.204-0.073c0,0,0.4,0,0.718,0 c0.346,0,0.835-0.392,0.835-0.957c0-0.559-0.493-0.931-0.863-0.933H456.1c-0.234,0-0.536,0.096-0.716,0.276L454.334,264.427 L454.334,264.427z"/>
			<path fill="#fff" d="M455.145,268.304h1.02c0.279,0,0.291-0.431,0-0.431h-0.522l0.993-0.993 c0.22-0.22-0.092-0.539-0.325-0.305l-0.979,0.98v-0.517c0.002-0.28-0.434-0.291-0.434,0v1.012 C454.897,268.202,454.998,268.304,455.145,268.304z"/>
			<path fill="#454545" d="M456.169,263.585h1.02c0.248,0,0.415,0.277,0.415,0.443s-0.118,0.474-0.422,0.474h-0.613 c-0.259,0-0.375,0.037-0.523,0.186l-2.931,2.931c-0.119,0.118-0.27,0.166-0.462,0.166h-0.967c-0.248,0-0.467-0.21-0.467-0.486 s0.209-0.43,0.424-0.43h0.663c0.192,0,0.321-0.055,0.431-0.166l2.979-2.98C455.839,263.601,455.961,263.585,456.169,263.585z"/>
		</g>
		<g class="escalator-up">
			<path fill="#454545" d="M441.813,261.439c-0.575,0-0.897,0.297-0.897,0.904v6.255 c0,0.567,0.29,0.864,0.864,0.864h6.281c0.573,0,0.864-0.282,0.864-0.864v-6.255c0-0.592-0.291-0.904-0.883-0.904 C448.043,261.439,441.813,261.438,441.813,261.439z"/>
			<path fill="#fff" d="M444.435,263.549c0.27,0,0.487-0.218,0.487-0.488c0-0.269-0.218-0.487-0.487-0.487 s-0.488,0.218-0.488,0.487C443.946,263.331,444.165,263.549,444.435,263.549z"/>
			<path fill="#fff" d="M444.435,263.061"/>
			<path fill="#fff" d="M444.917,264.427v-0.307c0-0.655-0.965-0.648-0.965,0v1.253h0.001l-0.911,0.912 c-0.086,0.086-0.097,0.089-0.267,0.089c0,0-0.557,0-0.557,0c-0.562,0-0.897,0.505-0.897,0.932s0.336,0.968,0.947,0.968 c0,0,0.759,0,0.993,0s0.519-0.089,0.753-0.311l2.908-2.899c0.063-0.055,0.098-0.073,0.204-0.073c0,0,0.4,0,0.718,0 c0.346,0,0.835-0.392,0.835-0.957c0-0.559-0.493-0.931-0.863-0.933h-1.134c-0.234,0-0.536,0.096-0.716,0.276L444.917,264.427 L444.917,264.427z"/>
			<path fill="#fff" d="M447.044,266.493h-1.02c-0.279,0-0.291,0.431,0,0.431h0.522l-0.993,0.993 c-0.22,0.22,0.092,0.539,0.325,0.305l0.979-0.98v0.517c-0.002,0.28,0.434,0.291,0.434,0v-1.012 C447.291,266.595,447.19,266.493,447.044,266.493z"/>
			<path fill="#454545" d="M446.752,263.585h1.02c0.248,0,0.415,0.277,0.415,0.443s-0.118,0.474-0.422,0.474 h-0.613c-0.259,0-0.375,0.037-0.523,0.186l-2.931,2.931c-0.119,0.118-0.27,0.166-0.462,0.166h-0.967 c-0.248,0-0.467-0.21-0.467-0.486s0.209-0.43,0.424-0.43h0.663c0.192,0,0.321-0.055,0.431-0.166l2.979-2.98 C446.422,263.601,446.544,263.585,446.752,263.585z"/>
		</g>
	</g>
	<g id="logos">
		<g id="petco-logo" transform="matrix(1.25,0,0,-1.25,332.76792,-43.827186)" inkscape:groupmode="layer" inkscape:label="2410">
			<g id="g3621" transform="matrix(1.039782,0,0,1.039782,-786.94209,-95.99541)">
				<g>
					<defs>
						<polygon id="SVGID_1_" points="809.76,-71.957 809.76,-87.35 856.466,-87.35 859.732,-71.957 					"/>
					</defs>
					<clipPath id="SVGID_2_">
						<use xlink:href="#SVGID_1_"  overflow="visible"/>
					</clipPath>
					<g id="g3623" clip-path="url(#SVGID_2_)">
						<g id="g3629" transform="translate(632.052,32.973007)">
							<path id="path3631" inkscape:connector-curvature="0" fill="#fff" d="M245.868-117.59l-0.165,0.024
								c0,0-0.267-0.49-0.978-0.49c-0.273,0-0.555,0.122-0.786,0.338l-0.003,1.221c-0.001,1.462-0.98,1.941-1.764,2.323
								c-0.758,0.369-1.349,0.657-1.352,1.618h-0.005c-0.001,0.631-0.269,1.129-0.322,1.222l-0.23,0.484
								c-0.11,0.305-0.168,0.629-0.168,0.956c0,0.32,0.106,0.713,0.308,1.141l0.005,0.009c0.273,0.632,0.742,1.173,0.929,1.173
								c0.165,0,0.27-0.152,0.456-0.473c0.213-0.361,0.503-0.861,1.138-0.86c0.764,0.001,1.277,0.99,1.276,1.913
								c-0.001,0.539-0.179,1.027-0.5,1.375c-0.379,0.417-0.963,0.622-1.681,0.621c-1.573-0.002-2.439-0.837-2.767-1.248
								c-0.301,0.119-0.872,0.294-1.648,0.293c-0.771-0.002-1.343-0.173-1.642-0.293c-0.329,0.41-1.197,1.25-2.77,1.248
								c-0.717-0.001-1.301-0.22-1.683-0.639c-0.316-0.348-0.493-0.837-0.492-1.376l0.001-0.032
								c-0.115,0.047-0.242,0.074-0.383,0.074c-0.428,0-0.92-0.731-1.113-1.046c-0.192-0.312-0.638-1.124-0.637-1.896
								c0.002-1.37,0.643-2.097,1.114-2.628c0.267-0.308,0.482-0.548,0.482-0.805c0-0.15-0.364-0.354-0.685-0.536
								c-0.681-0.38-1.608-0.907-1.606-2.044v-1.209c0.001-0.556-0.455-1.015-1.014-1.015c-0.434-0.001-0.673,0.346-0.681,0.359
								l-0.101,0.157l-0.183-0.03c-0.392-0.062-1.127-0.375-1.126-1.111c0.001-0.882,1.155-1.493,2.189-1.492
								c0.773,0.001,1.325,0.202,1.583,0.323c0.172-0.098,0.476-0.223,0.839-0.223h12.816c0.363,0.001,0.657,0.138,0.834,0.236
								c0.249-0.125,0.76-0.313,1.597-0.312c1.176,0.003,2.134,0.649,2.133,1.444C247.084-117.972,246.284-117.644,245.868-117.59"/>
						</g>
						<g id="g3633" transform="translate(632.052,32.973007)">
							
								<path id="path3635" inkscape:connector-curvature="0" fill="none" stroke="#fff" stroke-width="0.239" d="
								M245.868-117.59l-0.165,0.024c0,0-0.267-0.49-0.978-0.49c-0.273,0-0.555,0.122-0.786,0.338l-0.003,1.221
								c-0.001,1.462-0.98,1.941-1.764,2.323c-0.758,0.369-1.349,0.657-1.352,1.618h-0.005c-0.001,0.631-0.269,1.129-0.322,1.222
								l-0.23,0.484c-0.11,0.305-0.168,0.629-0.168,0.956c0,0.32,0.106,0.713,0.308,1.141l0.005,0.009
								c0.273,0.632,0.742,1.173,0.929,1.173c0.165,0,0.27-0.152,0.456-0.473c0.213-0.361,0.503-0.861,1.138-0.86
								c0.764,0.001,1.277,0.99,1.276,1.913c-0.001,0.539-0.179,1.027-0.5,1.375c-0.379,0.417-0.963,0.622-1.681,0.621
								c-1.573-0.002-2.439-0.837-2.767-1.248c-0.301,0.119-0.872,0.294-1.648,0.293c-0.771-0.002-1.343-0.173-1.642-0.293
								c-0.329,0.41-1.197,1.25-2.77,1.248c-0.717-0.001-1.301-0.22-1.683-0.639c-0.316-0.348-0.493-0.837-0.492-1.376l0.001-0.032
								c-0.115,0.047-0.242,0.074-0.383,0.074c-0.428,0-0.92-0.731-1.113-1.046c-0.192-0.312-0.638-1.124-0.637-1.896
								c0.002-1.37,0.643-2.097,1.114-2.628c0.267-0.308,0.482-0.548,0.482-0.805c0-0.15-0.364-0.354-0.685-0.536
								c-0.681-0.38-1.608-0.907-1.606-2.044v-1.209c0.001-0.556-0.455-1.015-1.014-1.015c-0.434-0.001-0.673,0.346-0.681,0.359
								l-0.101,0.157l-0.183-0.03c-0.392-0.062-1.127-0.375-1.126-1.111c0.001-0.882,1.155-1.493,2.189-1.492
								c0.773,0.001,1.325,0.202,1.583,0.323c0.172-0.098,0.476-0.223,0.839-0.223h12.816c0.363,0.001,0.657,0.138,0.834,0.236
								c0.249-0.125,0.76-0.313,1.597-0.312c1.176,0.003,2.134,0.649,2.133,1.444C247.084-117.972,246.284-117.644,245.868-117.59z"
								/>
						</g>
						<g id="g3637" transform="translate(608.09,45.089996)">
							<path id="path3639" inkscape:connector-curvature="0" fill="#35ABE2" d="M257.217-123.329c0-0.097-0.038-0.189-0.107-0.258
								c-0.069-0.069-0.161-0.107-0.258-0.107h-0.001c-0.2,0-0.361,0.164-0.361,0.366l0.001,0.143l-0.006,0.029
								c0.21,0.069,0.366,0.268,0.366,0.504h0.001c0,0-0.229,0.11-0.531,0.11c-0.31,0-0.536-0.11-0.536-0.11
								c0-0.236,0.156-0.435,0.37-0.504l-0.005-0.029l0.001-0.143c0-0.202-0.164-0.366-0.365-0.366h-0.001
								c-0.097,0-0.189,0.038-0.258,0.107c-0.069,0.069-0.106,0.161-0.106,0.258h-0.334c0-0.188,0.073-0.364,0.205-0.497
								c0.129-0.13,0.305-0.203,0.493-0.204h0.001c0.214,0.001,0.406,0.098,0.535,0.246h0.001c0.128-0.149,0.317-0.246,0.53-0.246
								h0.001c0.188,0.001,0.364,0.074,0.497,0.204c0.133,0.133,0.207,0.31,0.207,0.497H257.217 M257.404-121.659
								c-0.227,0-0.41-0.184-0.409-0.408c0-0.226,0.184-0.41,0.41-0.409c0.225,0,0.405,0.184,0.405,0.41
								C257.81-121.842,257.63-121.659,257.404-121.659 M255.636-122.066c0,0.223-0.184,0.406-0.405,0.406
								c-0.226,0-0.409-0.184-0.409-0.408c0.001-0.226,0.184-0.41,0.411-0.409C255.453-122.475,255.636-122.292,255.636-122.066
								 M257.882-122.943c0.015-0.081,0.086-0.138,0.166-0.138l0.031,0.003l0.887,0.169l-0.018-0.06l-0.204-0.437l-0.663,0.127
								c-0.091,0.017-0.18-0.041-0.198-0.133c-0.017-0.091,0.041-0.18,0.133-0.198l0.579-0.112c-0.091-0.222-0.192-0.565-0.192-0.956
								c0.001-0.329,0.131-0.579,0.269-0.847c0.171-0.329,0.345-0.671,0.346-1.27c0-0.296-0.197-0.971-0.373-1.571
								c-0.417-1.401-0.583-2.034-0.156-2.235c0.482-0.23,0.189-1.073,0.186-1.082h-1.171c0.071,0.295,0.166,0.975-0.347,1.366
								l-0.041,0.036l0.458,1.84c0.032,0.13-0.047,0.26-0.177,0.292c-0.129,0.033-0.26-0.047-0.292-0.177l-0.301-1.211l-0.305,1.211
								c-0.032,0.129-0.163,0.208-0.292,0.175c-0.129-0.033-0.207-0.165-0.174-0.293l0.382-1.496v-0.001
								c0.012-0.05,0.123-0.51,0.449-0.761c0.373-0.279,0.14-0.982,0.14-0.982h-1.183c0.041,0.254,0.095,0.836-0.177,1.21
								c-0.096,0.13-0.221,0.221-0.367,0.273l-0.471,1.872c-0.032,0.13-0.164,0.208-0.294,0.176
								c-0.128-0.033-0.207-0.163-0.176-0.293l0.422-1.666c-0.351,0.074-0.447,0.187-0.47,0.228l-0.014,0.105l0.02,0.05
								c0.047,0.122-0.016,0.261-0.14,0.308c-0.121,0.047-0.259-0.016-0.307-0.141v-0.001c-0.03-0.066-0.119-0.295,0.02-0.549
								c0.162-0.298,0.539-0.47,1.165-0.527c0.101-0.01,0.174-0.048,0.225-0.12c0.169-0.23,0.11-0.746,0.075-0.925h-1.699
								c-0.364,0-0.61,0.193-0.612,0.194l-0.156,0.119l-0.168-0.104c-0.005-0.003-0.54-0.326-1.444-0.328
								c-0.814-0.002-1.614,0.456-1.614,0.918c-0.001,0.293,0.301,0.437,0.491,0.499c0.178-0.185,0.519-0.455,1.027-0.455
								c0.877,0.001,1.593,0.72,1.592,1.596v1.208c-0.001,0.799,0.663,1.177,1.31,1.542c0.503,0.283,0.982,0.553,0.981,1.04
								c0,0.472-0.307,0.82-0.633,1.185c-0.144,0.163-0.291,0.332-0.425,0.522l0.654,0.131c0.091,0.018,0.15,0.107,0.132,0.199
								c-0.019,0.091-0.107,0.148-0.199,0.132l-0.781-0.156c-0.085,0.154-0.161,0.322-0.219,0.514l1.007-0.158l0.027-0.001
								c0.08,0,0.153,0.06,0.165,0.143c0.015,0.093-0.048,0.179-0.141,0.193l-1.142,0.176c-0.028,0.17-0.045,0.353-0.045,0.553
								c-0.001,0.956,0.917,2.233,1.197,2.363c0.255-0.035,0.673-0.68,0.902-1.26l0.098-0.249l0.007,0.006v-0.003l0.251,0.077
								c0.246,0.076,0.517,0.076,0.76,0.001l0.254-0.079l0.099,0.249c0.231,0.58,0.652,1.225,0.9,1.26
								c0.283-0.133,1.201-1.404,1.202-2.359c0.001-0.18-0.017-0.36-0.051-0.538l-1.043-0.196
								C257.925-122.763,257.866-122.851,257.882-122.943"/>
						</g>
						<g id="g3641" transform="translate(608.09,45.089996)">
							
								<path id="path3643" inkscape:connector-curvature="0" fill="none" stroke="#35ABE2" stroke-width="0.479" d="
								M257.217-123.329c0-0.097-0.038-0.189-0.107-0.258c-0.069-0.069-0.161-0.107-0.258-0.107h-0.001
								c-0.2,0-0.361,0.164-0.361,0.366l0.001,0.143l-0.006,0.029c0.21,0.069,0.366,0.268,0.366,0.504h0.001
								c0,0-0.229,0.11-0.531,0.11c-0.31,0-0.536-0.11-0.536-0.11c0-0.236,0.156-0.435,0.37-0.504l-0.005-0.029l0.001-0.143
								c0-0.202-0.164-0.366-0.365-0.366h-0.001c-0.097,0-0.189,0.038-0.258,0.107c-0.069,0.069-0.106,0.161-0.106,0.258h-0.334
								c0-0.188,0.073-0.364,0.205-0.497c0.129-0.13,0.305-0.203,0.493-0.204h0.001c0.214,0.001,0.406,0.098,0.535,0.246h0.001
								c0.128-0.149,0.317-0.246,0.53-0.246h0.001c0.188,0.001,0.364,0.074,0.497,0.204c0.133,0.133,0.207,0.31,0.207,0.497H257.217"
								/>
						</g>
						<g id="g3645" transform="translate(608.44501,48.261993)">
							
								<path id="path3647" inkscape:connector-curvature="0" fill="none" stroke="#35ABE2" stroke-width="0.479" d="
								M257.049-124.831c-0.227,0-0.409-0.184-0.409-0.408c0-0.226,0.184-0.41,0.41-0.409c0.227,0,0.406,0.184,0.405,0.41
								C257.455-125.014,257.275-124.831,257.049-124.831z"/>
						</g>
						<g id="g3649" transform="translate(605.08701,47.490006)">
							
								<path id="path3651" inkscape:connector-curvature="0" fill="none" stroke="#35ABE2" stroke-width="0.479" d="
								M258.639-124.466c0,0.224-0.184,0.407-0.404,0.406c-0.227,0-0.41-0.184-0.409-0.408c0-0.225,0.185-0.409,0.41-0.409
								C258.457-124.875,258.639-124.691,258.639-124.466z"/>
						</g>
						<g id="g3653" transform="translate(609.355,45.824005)">
							
								<path id="path3655" inkscape:connector-curvature="0" fill="none" stroke="#35ABE2" stroke-width="0.479" d="
								M256.618-123.676c0.014-0.081,0.086-0.138,0.165-0.138l0.032,0.003l0.887,0.168l-0.018-0.06l-0.204-0.437l-0.663,0.126
								c-0.091,0.017-0.18-0.04-0.198-0.132c-0.017-0.092,0.042-0.181,0.134-0.198l0.578-0.112c-0.09-0.223-0.192-0.565-0.192-0.956
								c0-0.33,0.131-0.579,0.268-0.847c0.171-0.328,0.346-0.671,0.346-1.269c0-0.296-0.197-0.97-0.374-1.571
								c-0.415-1.401-0.582-2.034-0.156-2.235c0.482-0.229,0.189-1.072,0.185-1.081h-1.171c0.071,0.295,0.166,0.975-0.348,1.366
								l-0.04,0.036l0.458,1.839c0.032,0.129-0.047,0.261-0.177,0.292c-0.129,0.033-0.261-0.046-0.293-0.176l-0.301-1.212
								l-0.305,1.211c-0.032,0.13-0.163,0.208-0.292,0.175c-0.131-0.033-0.209-0.164-0.176-0.293l0.382-1.495v-0.001
								c0.012-0.051,0.122-0.51,0.449-0.761c0.373-0.28,0.141-0.983,0.141-0.983h-1.184c0.041,0.254,0.096,0.836-0.177,1.21
								c-0.095,0.13-0.22,0.221-0.367,0.273l-0.47,1.872c-0.033,0.13-0.164,0.208-0.295,0.175c-0.128-0.032-0.207-0.163-0.174-0.293
								l0.42-1.666c-0.35,0.074-0.446,0.187-0.47,0.227l-0.013,0.106l0.02,0.05c0.047,0.122-0.017,0.261-0.14,0.308
								c-0.122,0.047-0.26-0.015-0.307-0.14v-0.002c-0.031-0.065-0.119-0.294,0.02-0.548c0.161-0.297,0.539-0.47,1.165-0.528
								c0.101-0.01,0.174-0.047,0.225-0.12c0.168-0.229,0.11-0.746,0.075-0.925h-1.699c-0.364,0-0.611,0.192-0.612,0.194
								l-0.156,0.119l-0.168-0.104c-0.004-0.003-0.54-0.326-1.443-0.328c-0.814-0.002-1.615,0.456-1.615,0.919
								c0,0.293,0.301,0.437,0.491,0.499c0.178-0.185,0.52-0.456,1.027-0.456c0.877,0.001,1.594,0.72,1.593,1.596v1.208
								c-0.001,0.8,0.663,1.177,1.31,1.543c0.503,0.283,0.982,0.553,0.981,1.04c-0.001,0.473-0.307,0.82-0.633,1.185
								c-0.143,0.163-0.291,0.333-0.425,0.522l0.654,0.131c0.092,0.018,0.15,0.107,0.132,0.199c-0.018,0.091-0.107,0.148-0.198,0.132
								l-0.781-0.156c-0.086,0.154-0.162,0.322-0.219,0.514l1.007-0.158l0.027-0.001c0.081,0,0.153,0.059,0.167,0.142
								c0.014,0.092-0.05,0.179-0.141,0.193l-1.142,0.176c-0.029,0.169-0.045,0.353-0.045,0.553
								c-0.001,0.956,0.916,2.233,1.197,2.363c0.254-0.034,0.673-0.679,0.901-1.259l0.098-0.249l0.007,0.006l0.001-0.003l0.25,0.077
								c0.248,0.076,0.517,0.077,0.76,0.001l0.255-0.078l0.098,0.249c0.231,0.58,0.652,1.225,0.901,1.26
								c0.282-0.133,1.201-1.405,1.202-2.359c0.001-0.18-0.017-0.36-0.05-0.537l-1.044-0.196
								C256.66-123.496,256.601-123.585,256.618-123.676z"/>
						</g>
						<g id="g3657" transform="translate(608.09,45.089996)">
							<path id="path3659" inkscape:connector-curvature="0" fill="#231F20" d="M257.217-123.329c0-0.097-0.038-0.189-0.107-0.258
								c-0.069-0.069-0.161-0.107-0.258-0.107h-0.001c-0.2,0-0.361,0.164-0.361,0.366l0.001,0.143l-0.006,0.029
								c0.21,0.069,0.366,0.268,0.366,0.504h0.001c0,0-0.229,0.11-0.531,0.11c-0.31,0-0.536-0.11-0.536-0.11
								c0-0.236,0.156-0.435,0.37-0.504l-0.005-0.029l0.001-0.143c0-0.202-0.164-0.366-0.365-0.366h-0.001
								c-0.097,0-0.189,0.038-0.258,0.107c-0.069,0.069-0.106,0.161-0.106,0.258h-0.334c0-0.188,0.073-0.364,0.205-0.497
								c0.129-0.13,0.305-0.203,0.493-0.204h0.001c0.214,0.001,0.406,0.098,0.535,0.246h0.001c0.128-0.149,0.317-0.246,0.53-0.246
								h0.001c0.188,0.001,0.364,0.074,0.497,0.204c0.133,0.133,0.207,0.31,0.207,0.497H257.217 M257.404-121.659
								c-0.227,0-0.41-0.184-0.409-0.408c0-0.226,0.184-0.41,0.41-0.409c0.225,0,0.405,0.184,0.405,0.41
								C257.81-121.842,257.63-121.659,257.404-121.659 M255.636-122.066c0,0.223-0.184,0.406-0.405,0.406
								c-0.226,0-0.409-0.184-0.409-0.408c0.001-0.226,0.184-0.41,0.411-0.409C255.453-122.475,255.636-122.292,255.636-122.066
								 M262.263-122.067c-0.001,0.223,0.183,0.408,0.406,0.408c0.224,0,0.407-0.183,0.407-0.407c0-0.226-0.183-0.41-0.405-0.41
								C262.447-122.477,262.263-122.294,262.263-122.067 M260.09-122.067c0,0.224,0.18,0.408,0.404,0.408
								c0.227,0,0.409-0.183,0.41-0.407c0.001-0.226-0.183-0.409-0.409-0.41C260.271-122.476,260.09-122.294,260.09-122.067
								 M267.594-119.106c0.001-0.717-0.383-1.347-0.7-1.348c-0.291,0-0.433,0.233-0.636,0.587c-0.197,0.337-0.443,0.759-0.959,0.758
								c-0.768-0.001-1.41-1.415-1.455-1.517c-0.165-0.349-0.361-0.873-0.361-1.383c0.001-0.4,0.071-0.792,0.207-1.166l0.249-0.532
								c0,0,0.255-0.42,0.258-0.953c-0.059-0.6-0.562-1.076-1.181-1.077c-0.654-0.001-1.19,0.536-1.191,1.192l-0.001,0.418
								c0.458,0.11,0.796,0.515,0.796,1.004c0,0-0.425,0.214-1.038,0.214c-0.605,0-1.034-0.214-1.034-0.214
								c0.001-0.489,0.342-0.896,0.799-1.004v-0.42c0.001-0.655-0.533-1.19-1.188-1.19c-0.616-0.001-1.125,0.469-1.185,1.069
								c0.002,0.515,0.238,0.924,0.24,0.928l0.252,0.535l0.01,0.025c0.136,0.375,0.205,0.767,0.204,1.167
								c-0.001,0.771-0.452,1.582-0.642,1.893c-0.192,0.315-0.691,1.044-1.12,1.043h-0.066c-0.479,0-0.724-0.381-0.914-0.713
								c-0.088-0.129-0.167-0.261-0.233-0.386c-0.122-0.174-0.247-0.277-0.439-0.277v-0.001h-0.001v0.001
								c-0.316-0.001-0.703,0.612-0.705,1.33c0,0.278,0.059,0.677,0.345,0.987c0.274,0.299,0.695,0.449,1.256,0.45
								c1.688,0.002,2.395-1.13,2.425-1.178l0.143-0.243l0.246,0.132c0.006,0.003,0.612,0.332,1.6,0.333
								c0.992,0.001,1.597-0.325,1.603-0.329l0.247-0.137l0.143,0.243c0.006,0.012,0.718,1.175,2.421,1.178
								c0.557,0,0.983-0.135,1.258-0.434C267.534-118.429,267.593-118.829,267.594-119.106 M271.046-130.909
								c0.001-0.795-0.956-1.441-2.132-1.444c-0.837-0.001-1.347,0.186-1.597,0.312c-0.177-0.098-0.471-0.236-0.834-0.236h-12.816
								c-0.363-0.001-0.667,0.125-0.839,0.222c-0.258-0.119-0.81-0.322-1.583-0.322c-1.035-0.001-2.188,0.609-2.19,1.491
								c-0.001,0.737,0.734,1.05,1.126,1.111l0.184,0.03l0.101-0.157c0.008-0.012,0.247-0.359,0.681-0.358
								c0.559,0,1.014,0.459,1.014,1.015l-0.001,1.208c-0.001,1.138,0.926,1.665,1.607,2.044c0.322,0.183,0.685,0.387,0.685,0.537
								c0,0.256-0.215,0.497-0.482,0.804c-0.471,0.53-1.112,1.258-1.114,2.628c-0.001,0.771,0.445,1.583,0.637,1.895
								c0.193,0.315,0.684,1.046,1.113,1.047c0.141,0,0.268-0.027,0.383-0.074l-0.001,0.032c-0.001,0.539,0.177,1.028,0.491,1.376
								c0.383,0.419,0.967,0.637,1.684,0.639c1.573,0.002,2.441-0.838,2.77-1.248c0.299,0.12,0.872,0.292,1.642,0.293
								c0.776,0.001,1.347-0.174,1.648-0.293c0.328,0.411,1.194,1.246,2.767,1.248c0.717,0.001,1.302-0.204,1.681-0.621
								c0.321-0.348,0.499-0.836,0.5-1.375c0.001-0.923-0.512-1.911-1.276-1.913c-0.635-0.001-0.925,0.499-1.138,0.86
								c-0.186,0.321-0.292,0.473-0.456,0.473c-0.188,0-0.656-0.541-0.929-1.173l-0.005-0.009c-0.202-0.428-0.308-0.82-0.308-1.141
								c0.001-0.328,0.058-0.651,0.168-0.956l0.23-0.484c0.053-0.094,0.321-0.592,0.322-1.223h0.005
								c0.002-0.961,0.594-1.25,1.352-1.618c0.784-0.382,1.763-0.861,1.764-2.323l0.001-1.222c0.232-0.216,0.515-0.338,0.787-0.338
								c0.71,0,0.977,0.491,0.977,0.491l0.165-0.026C270.246-129.761,271.046-130.089,271.046-130.909 M268.914-131.777
								c-0.995-0.002-1.425,0.306-1.427,0.307l-0.18,0.139l-0.178-0.144c-0.002-0.001-0.27-0.205-0.647-0.206h-2.085
								c-0.005,0.006-0.409,0.532-0.222,0.911c0.266,0.542,0.781,0.653,1.467,0.655c0.313,0,0.454,0.142,0.516,0.261
								c0.178,0.336-0.119,0.824-0.215,0.965c-0.076,0.111-0.225,0.139-0.336,0.064c-0.11-0.075-0.14-0.225-0.065-0.335
								c0.113-0.165,0.202-0.389,0.19-0.466c-0.013-0.004-0.04-0.011-0.092-0.011c-0.17-0.001-0.403-0.002-0.653-0.045l-0.141,0.561
								c-0.032,0.131-0.163,0.209-0.293,0.177c-0.129-0.033-0.208-0.164-0.175-0.293l0.144-0.573
								c-0.303-0.13-0.588-0.355-0.778-0.746c-0.201-0.406-0.059-0.842,0.086-1.124h-1.878c-0.071,0.441-0.092,1.077,0.194,1.191
								c0.095,0.039,0.195,0.062,0.289,0.083c0.196,0.044,0.416,0.095,0.536,0.306c0.107,0.192,0.095,0.448-0.044,0.869l-0.228,0.914
								c-0.031,0.129-0.16,0.208-0.29,0.175c-0.128-0.032-0.207-0.164-0.175-0.293l0.232-0.921l0.002-0.008l0.003-0.011
								c0.13-0.389,0.089-0.479,0.084-0.489c-0.014-0.025-0.152-0.056-0.225-0.072c-0.108-0.024-0.232-0.052-0.364-0.106
								c-0.171-0.068-0.292-0.188-0.375-0.334c-0.082,0.147-0.2,0.265-0.37,0.334c-0.132,0.053-0.255,0.08-0.365,0.104
								c-0.073,0.017-0.211,0.048-0.225,0.072c-0.005,0.009-0.047,0.1,0.083,0.489l0.003,0.014l0.003,0.005l0.229,0.922
								c0.032,0.13-0.047,0.261-0.177,0.293c-0.128,0.032-0.26-0.047-0.292-0.177l-0.225-0.915c-0.134-0.422-0.147-0.678-0.04-0.869
								c0.116-0.21,0.34-0.261,0.538-0.304c0.095-0.021,0.194-0.043,0.289-0.082c0.286-0.115,0.27-0.75,0.2-1.191h-1.979
								c0.123,0.48,0.137,1.214-0.452,1.56c-0.014,0.263,0.219,1.055,0.376,1.596c0.207,0.694,0.401,1.351,0.4,1.73
								c-0.001,0.275-0.032,0.505-0.081,0.71c0.201-0.086,0.423-0.133,0.654-0.133c0.159,0.001,0.313,0.026,0.462,0.069
								c0.259-0.239,0.602-0.379,0.958-0.379c0.363,0.001,0.706,0.137,0.963,0.379c0.15-0.045,0.307-0.065,0.473-0.064
								c0.556,0.001,1.043,0.273,1.348,0.689c0.292-0.685,0.929-0.996,1.516-1.282c0.772-0.378,1.444-0.7,1.446-1.805l0.001-1.453
								l0.077-0.083c0.349-0.384,0.817-0.604,1.283-0.602c0.601,0,1.002,0.272,1.195,0.446c0.205-0.06,0.583-0.22,0.583-0.604
								C270.467-131.361,269.73-131.777,268.914-131.777 M261.115-125.917c0.141-0.086,0.301-0.134,0.467-0.134
								c0.172-0.001,0.339,0.047,0.482,0.134c-0.191,0.136-0.351,0.308-0.471,0.509C261.472-125.611,261.31-125.783,261.115-125.917
								 M257.882-122.943c0.015-0.081,0.086-0.138,0.166-0.138l0.031,0.003l0.887,0.169l-0.018-0.06l-0.204-0.437l-0.663,0.127
								c-0.091,0.017-0.18-0.041-0.198-0.133c-0.017-0.091,0.041-0.18,0.133-0.198l0.579-0.112c-0.091-0.222-0.192-0.565-0.192-0.956
								c0.001-0.329,0.131-0.579,0.269-0.847c0.171-0.329,0.345-0.671,0.346-1.27c0-0.296-0.197-0.971-0.373-1.571
								c-0.417-1.401-0.583-2.034-0.156-2.235c0.482-0.23,0.189-1.073,0.186-1.082h-1.171c0.071,0.295,0.166,0.975-0.347,1.366
								l-0.041,0.036l0.458,1.84c0.032,0.13-0.047,0.26-0.177,0.292c-0.129,0.033-0.26-0.047-0.292-0.177l-0.301-1.211l-0.305,1.211
								c-0.032,0.129-0.163,0.208-0.292,0.175c-0.129-0.033-0.207-0.165-0.174-0.293l0.382-1.496v-0.001
								c0.012-0.05,0.123-0.51,0.449-0.761c0.373-0.279,0.14-0.982,0.14-0.982h-1.183c0.041,0.254,0.095,0.836-0.177,1.21
								c-0.096,0.13-0.221,0.221-0.367,0.273l-0.471,1.872c-0.032,0.13-0.164,0.208-0.294,0.176
								c-0.128-0.033-0.207-0.163-0.176-0.293l0.422-1.666c-0.351,0.074-0.447,0.187-0.47,0.228l-0.014,0.105l0.02,0.05
								c0.047,0.122-0.016,0.261-0.14,0.308c-0.121,0.047-0.259-0.016-0.307-0.141v-0.001c-0.03-0.066-0.119-0.295,0.02-0.549
								c0.162-0.298,0.539-0.47,1.165-0.527c0.101-0.01,0.174-0.048,0.225-0.12c0.169-0.23,0.11-0.746,0.075-0.925h-1.699
								c-0.364,0-0.61,0.193-0.612,0.194l-0.156,0.119l-0.168-0.104c-0.005-0.003-0.54-0.326-1.444-0.328
								c-0.814-0.002-1.614,0.456-1.614,0.918c-0.001,0.293,0.301,0.437,0.491,0.499c0.178-0.185,0.519-0.455,1.027-0.455
								c0.877,0.001,1.593,0.72,1.592,1.596v1.208c-0.001,0.799,0.663,1.177,1.31,1.542c0.503,0.283,0.982,0.553,0.981,1.04
								c0,0.472-0.307,0.82-0.633,1.185c-0.144,0.163-0.291,0.332-0.425,0.522l0.654,0.131c0.091,0.018,0.15,0.107,0.132,0.199
								c-0.019,0.091-0.107,0.148-0.199,0.132l-0.781-0.156c-0.085,0.154-0.161,0.322-0.219,0.514l1.007-0.158l0.027-0.001
								c0.08,0,0.153,0.06,0.165,0.143c0.015,0.093-0.048,0.179-0.141,0.193l-1.142,0.176c-0.028,0.17-0.045,0.353-0.045,0.553
								c-0.001,0.956,0.917,2.233,1.197,2.363c0.255-0.035,0.673-0.68,0.902-1.26l0.098-0.249l0.007,0.006v-0.003l0.251,0.077
								c0.246,0.076,0.517,0.076,0.76,0.001l0.254-0.079l0.099,0.249c0.231,0.58,0.652,1.225,0.9,1.26
								c0.283-0.133,1.201-1.404,1.202-2.359c0.001-0.18-0.017-0.36-0.051-0.538l-1.043-0.196
								C257.925-122.763,257.866-122.851,257.882-122.943"/>
						</g>
						<g id="g3661" transform="translate(587.351,43.350006)">
							<path id="path3663" inkscape:connector-curvature="0" fill="#fff" d="M267.04-122.505v0.036
								c0,1.429-1.029,2.677-2.548,2.677c-1.576,0-2.514-1.211-2.514-2.64v-0.037c0-1.429,1.029-2.677,2.549-2.677
								C266.101-125.146,267.04-123.934,267.04-122.505 M259.265-122.505v0.036c0,2.783,2.241,5.045,5.263,5.045
								c3.001,0,5.226-2.226,5.226-5.009v-0.037c0-2.786-2.244-5.045-5.262-5.045C261.487-127.514,259.265-125.291,259.265-122.505
								 M249.657-122.505v0.036c0,2.767,2.117,5.045,5.083,5.045c0.935,0,1.693-0.163,2.329-0.456
								c1.175-0.545,1.905-1.705,0.894-2.611c-0.442-0.397-0.866-0.428-0.866-0.428c-0.367,0.535-0.823,1.219-2.375,1.219
								c-1.376,0-2.351-1.303-2.351-2.732v-0.037c0-1.483,0.956-2.677,2.459-2.677c0.921,0,2.037,0.394,2.753,1.213l1.353-1.717
								c-0.938-1.035-2.299-1.865-4.234-1.865C251.793-127.514,249.657-125.272,249.657-122.505 M243.884-123.733v3.777h-1.159v2.35
								h1.159v2.212h2.748v-2.212h2.064v-2.35h-2.064v-3.686c0-0.633,0.449-1.341,1.225-1.341c0.506,0,0.64-0.014,1.016,0.047v-2.344
								c-0.483-0.122-0.711-0.107-1.214-0.107C245.818-127.386,243.884-126.383,243.884-123.733 M239.427-121.1
								c-0.107,0.836-0.647,1.578-1.65,1.578c-0.892,0-1.821-0.697-1.956-1.578H239.427z M232.988-122.505v0.036
								c0,2.767,1.972,5.045,4.79,5.045c3.238,0,4.236-2.55,4.236-4.118c0-1.415-1.766-1.507-2.33-1.507h-3.964
								c0.269-1.247,1.138-2.162,2.368-2.162c0.92,0,2.042,0.483,2.799,1.189l1.172-1.887c-1.035-1.034-2.389-1.606-4.007-1.606
								C235.141-127.514,232.988-125.472,232.988-122.505 M229.289-122.561v0.036c0,1.608-0.85,2.765-2.159,2.765
								c-1.31,0-2.146-1.157-2.146-2.765v-0.036c0-1.608,0.975-2.677,2.146-2.677C228.301-125.237,229.289-124.187,229.289-122.561
								 M231.962-122.432c0-2.465-1.325-5.068-4.338-5.068c-1.465,0-1.942,0.412-2.58,0.979v-2.374c0-1.96-2.635-1.732-2.635-1.732
								v13.021h2.429v-1.082c0.669,0.903,1.724,1.263,3.15,1.264C230.5-117.423,231.962-119.967,231.962-122.432"/>
						</g>
					</g>
				</g>
			</g>
			<g id="g3062" transform="matrix(2.6142574,0,0,2.6142574,-124.3477,-61.926392)">
				<path id="path3064" inkscape:connector-curvature="0" fill="#231F20" d="M96.813-46.731c-0.092,0.095-0.219,0.165-0.341,0.126
					c-0.216-0.056-0.441-0.204-0.672-0.087c-0.451,0.147-0.095,0.857-0.401,1.136c-0.288,0.276-0.68,0.077-0.926,0.387
					c-0.188,0.168-0.209,0.42-0.173,0.665c-0.015,0.255-0.301,0.404-0.349,0.649c-0.075,0.45,0.109,0.874,0.441,1.171
					c0.179-0.148,0.27-0.357,0.347-0.557l0.576,0.009c0.2,0.312,0.384,0.701,0.237,1.09c-0.062,0.122-0.139,0.246-0.261,0.336
					c-0.302,0.246-0.781,0.241-1.139,0.113c-0.224-0.086-0.44-0.245-0.619-0.408c-0.363,0.118-0.838,0.097-1.196-0.021
					c-0.281,0.292-0.614,0.466-1.007,0.48c-0.379,0.015-0.752-0.137-0.915-0.489c-0.051-0.083-0.01-0.221-0.127-0.252
					c-0.549-0.274-0.764-0.866-0.733-1.461h-0.182c-0.045,0-0.079-0.034-0.079-0.078c0-0.044,0.034-0.079,0.079-0.079h0.206
					c0.005-0.017,0.011-0.037,0.016-0.064c0.012-0.037,0.019-0.062,0.025-0.084h-0.248c-0.045,0-0.079-0.035-0.079-0.079
					c0-0.043,0.034-0.079,0.079-0.079h0.322c0.075-0.08,0.146-0.183,0.239-0.273c0.097-0.113,0.231-0.163,0.322-0.271
					c0.025-0.061,0.021-0.15-0.04-0.194c-0.246-0.118-0.521-0.164-0.727-0.389c-0.202-0.175-0.259-0.403-0.276-0.647v-0.631
					c0,0-0.01-0.049-0.038-0.077c-0.027-0.028-0.079-0.029-0.079-0.029h-0.831v0.264c0,0.215-0.175,0.391-0.389,0.391
					c-0.217,0-0.39-0.175-0.39-0.391v-0.31v-0.004c0-0.031,0.016-0.318,0.225-0.528c0.195-0.194,0.412-0.205,0.481-0.203h0.889
					c0.089,0,0.172,0.033,0.237,0.084c0.033-0.046,0.121-0.098,0.186-0.104l0.962,0.003c0.137-0.003,0.266,0.026,0.363,0.118
					c0.051-0.078,0.127-0.118,0.209-0.15c0.103-0.029,0.209-0.004,0.298,0.046c0.049,0.016,0.076,0.083,0.121,0.097
					c0.077-0.106,0.184-0.143,0.303-0.147c0.137-0.011,0.239,0.081,0.327,0.175c0.061-0.073,0.137-0.109,0.216-0.142
					c0.209-0.074,0.417,0.003,0.562,0.152c0.055-0.073,0.132-0.109,0.203-0.144c0.2-0.077,0.435-0.009,0.578,0.144
					c0.051-0.057,0.118-0.109,0.199-0.114h1.283c0.118-0.005,0.215,0.063,0.297,0.143c0.229-0.158,0.506-0.229,0.8-0.193
					c0.288,0.045,0.61,0.223,0.691,0.532C96.946-46.957,96.905-46.825,96.813-46.731"/>
			</g>
			<g id="g3070" transform="matrix(2.6142574,0,0,2.6142574,-150.64609,-46.450263)">
				<path id="path3072" inkscape:connector-curvature="0" fill="#139CD8" d="M101.577-49.534c0-0.089-0.072-0.161-0.16-0.161
					c-0.09,0-0.161,0.072-0.161,0.161c0,0.089,0.071,0.162,0.161,0.162C101.505-49.373,101.577-49.445,101.577-49.534
					 M100.719-49.534c0-0.089-0.07-0.161-0.16-0.161c-0.088,0-0.161,0.072-0.161,0.161c0,0.089,0.073,0.162,0.161,0.162
					C100.648-49.373,100.719-49.445,100.719-49.534 M101.065-50.359c0-0.043-0.034-0.079-0.078-0.079
					c-0.043,0-0.079,0.036-0.079,0.079H101.065z M101.461-50.029c0-0.149-0.12-0.271-0.269-0.271c-0.083,0-0.156,0.038-0.205,0.096
					c-0.051-0.058-0.122-0.096-0.204-0.096c-0.149,0-0.271,0.121-0.271,0.271h0.132c0-0.076,0.062-0.139,0.139-0.139
					c0.076,0,0.137,0.062,0.137,0.139v0.072c-0.073,0.027-0.124,0.095-0.124,0.177h0.379c0-0.082-0.05-0.15-0.123-0.177v-0.072
					c0-0.076,0.062-0.139,0.139-0.139c0.075,0,0.137,0.062,0.137,0.139H101.461z M99.976-52.177c-0.082,0-0.147,0.065-0.147,0.148
					c0,0.08,0.065,0.146,0.147,0.146c0,0,0.121-0.023,0.192-0.043c0.29-0.054,0.194-0.475,0.235-0.72
					c0.102-0.021,0.225,0.024,0.303-0.062l-0.003,0.675c0,0.091,0.073,0.163,0.163,0.163c0.088,0,0.162-0.072,0.162-0.163
					l0.002-1.073c0-0.091,0.074-0.163,0.163-0.163c0.089,0,0.161,0.073,0.161,0.163v1.073c0,0.091,0.073,0.163,0.163,0.163
					c0.089,0,0.161-0.072,0.161-0.163l-0.002-1.073c0-0.091,0.075-0.163,0.163-0.163c0.089,0,0.162,0.073,0.162,0.163v0.974
					l0.005,0.069c-0.005,0.211,0.129,0.306,0.17,0.496c0.03,0.147-0.004,0.365-0.078,0.413c-0.348,0.273-0.444,0.44-0.378,0.746
					c0.009,0.068,0.061,0.121,0.077,0.182h-0.085c-0.044,0-0.08,0.036-0.08,0.079c0,0.045,0.036,0.079,0.08,0.079h0.22
					c0.025,0.039,0.071,0.101,0.076,0.149h-0.296c-0.044,0-0.08,0.035-0.08,0.079c0,0.044,0.036,0.078,0.08,0.078h0.343
					c0.053,0.413-0.116,0.828-0.438,1.118c-0.261-0.157-0.35-0.439-0.397-0.551c-0.157,0.044-0.347,0.04-0.501-0.022
					c-0.056,0.209-0.205,0.41-0.398,0.543c-0.329-0.267-0.451-0.674-0.406-1.088h0.322c0.042,0,0.079-0.034,0.079-0.078
					c0-0.044-0.036-0.079-0.079-0.079h-0.285c0.005-0.049,0.034-0.115,0.058-0.149h0.227c0.042,0,0.079-0.035,0.079-0.079
					c0-0.043-0.079-0.079-0.079-0.079h-0.099c-0.001-0.001-0.004-0.001-0.006-0.001c0.061-0.14,0.235-0.2,0.353-0.303
					c0.133-0.102,0.173-0.282,0.127-0.445c-0.097-0.262-0.387-0.292-0.597-0.392c-0.68-0.248-0.359-1.05-0.434-1.618l-0.005-0.108
					c0-0.089,0.073-0.163,0.163-0.163l0.85-0.001c0.091,0,0.163,0.074,0.163,0.163c0,0.09-0.072,0.162-0.163,0.162l-0.33,0.003
					c-0.088,0-0.162,0.072-0.162,0.163c0,0,0.022,0.444-0.033,0.532C100.038-52.177,99.976-52.177,99.976-52.177 M98.1-52.927
					c0.034-0.067,0.152-0.064,0.152-0.064h0.889c0.076,0,0.136-0.063,0.136-0.139c0-0.075-0.06-0.136-0.136-0.136h-0.892
					c0,0-0.154-0.013-0.298,0.129c-0.145,0.146-0.153,0.358-0.153,0.358v0.305c0,0.076,0.062,0.136,0.138,0.136
					c0.074,0,0.136-0.06,0.136-0.136v-0.295C98.072-52.768,98.069-52.86,98.1-52.927"/>
			</g>
			<g id="g3074" transform="matrix(2.6142574,0,0,2.6142574,-132.07832,-63.767101)">
				<path id="path3076" inkscape:connector-curvature="0" fill="#EE2F26" d="M98.213-46.397c-0.006-0.071-0.051-0.186-0.158-0.186
					h-1.166c-0.081,0-0.15,0.066-0.15,0.149c0,0.082,0.069,0.148,0.15,0.148l0.526,0.002c0.098,0.012,0.138,0.098,0.153,0.159
					l0.004,0.855c0,0.176,0.142,0.319,0.319,0.319c0.177,0,0.318-0.143,0.318-0.319L98.213-46.397z M95.174-46.401l-0.003,0.885
					c0.077,0.293,0.343,0.595,0.173,0.923c0.04,0.003,0.107,0.023,0.158,0.049c0.128-0.153,0.312-0.256,0.526-0.221
					c0.133,0.032,0.261,0.103,0.343,0.231c0.23-0.077,0.475-0.005,0.644,0.154c0.076-0.17,0.235-0.328,0.398-0.425
					c-0.03-0.066-0.085-0.108-0.121-0.184c-0.129-0.301,0-0.893-0.101-0.985c-0.103-0.095-0.452-0.044-0.452-0.044v0.64
					c0,0.085-0.069,0.156-0.157,0.156c-0.086,0-0.157-0.071-0.157-0.156l0.004-1.014c0-0.132-0.105-0.238-0.235-0.238
					c-0.132,0-0.237,0.106-0.237,0.238v1.014c0,0.085-0.071,0.156-0.158,0.156c-0.085,0-0.156-0.071-0.156-0.156l0.003-1.014
					c0-0.132-0.106-0.238-0.236-0.238c-0.131,0-0.237,0.106-0.237,0.238 M96.52-42.91c0-0.089-0.071-0.161-0.16-0.161
					c-0.087,0-0.16,0.072-0.16,0.161c0,0.089,0.073,0.162,0.16,0.162C96.449-42.749,96.52-42.821,96.52-42.91 M95.663-42.91
					c0-0.089-0.071-0.161-0.16-0.161c-0.087,0-0.16,0.072-0.16,0.161c0,0.089,0.073,0.162,0.16,0.162
					C95.592-42.749,95.663-42.821,95.663-42.91 M98.125-41.43c-0.097,0.111-0.219,0.173-0.353,0.209
					c-0.474,0.076-0.888-0.154-1.15-0.544c-0.409,0.222-1.022,0.226-1.422-0.025c-0.248,0.404-0.684,0.629-1.164,0.536
					c-0.173-0.04-0.353-0.168-0.408-0.347c-0.082-0.236,0.018-0.474,0.154-0.659l0.187-0.001c0.097,0.231,0.282,0.502,0.528,0.594
					c0.536-0.308,0.765-0.875,0.745-1.467c0.02-0.324-0.353-0.491-0.311-0.818c0.025-0.097,0.091-0.194,0.178-0.241
					c0.164-0.092,0.373-0.062,0.518,0.057c0.137,0.111,0.186,0.347,0.166,0.536h-0.156c-0.088,0-0.16,0.071-0.16,0.159
					c0,0.09,0.072,0.161,0.16,0.161h0.59c0.089,0,0.16-0.071,0.16-0.161c0-0.088-0.071-0.159-0.16-0.159h-0.134v-0.003
					c-0.027-0.195,0-0.379,0.141-0.513c0.118-0.113,0.302-0.143,0.46-0.091c0.098,0.035,0.183,0.117,0.226,0.214
					c0.031,0.102,0.036,0.225-0.011,0.323c-0.153,0.195-0.29,0.388-0.302,0.645c0,0.562,0.23,1.098,0.747,1.385
					c0.231-0.124,0.413-0.369,0.511-0.594l0.209,0.004l0.124,0.241C98.271-41.814,98.242-41.58,98.125-41.43 M95.935-44.487
					c0.087,0,0.212,0.01,0.303,0.091c-0.187-0.006-0.305,0.127-0.305,0.127s-0.122-0.133-0.306-0.127
					c0.091-0.081,0.216-0.091,0.302-0.091H95.935z M98.511-46.172l-0.006-0.31c0.194-0.18,0.552-0.203,0.795-0.098
					c0.116,0.05,0.348,0.151,0.285,0.308c-0.082,0.201-0.262-0.065-0.477-0.075C98.931-46.355,98.692-46.332,98.511-46.172"/>
			</g>
		</g>
	</g>
	<!-- Image fallback -->
	<image xlink:href="images/mall/mall-basement.svg" src="images/mall/mall-basement.png"/>
</svg>
